<?xml version="1.0" standalone="no"?>
<!DOCTYPE svg PUBLIC "-//W3C//DTD SVG 20010904//EN"
 "http://www.w3.org/TR/2001/REC-SVG-20010904/DTD/svg10.dtd">
<svg version="1.0" xmlns="http://www.w3.org/2000/svg"
 width="1024.000000pt" height="1024.000000pt" viewBox="0 0 1024.000000 1024.000000"
 preserveAspectRatio="xMidYMid meet">

<g transform="translate(0.000000,1024.000000) scale(0.100000,-0.100000)"
fill="#000000" stroke="none">
<path d="M0 5120 l0 -5120 5120 0 5120 0 0 5120 0 5120 -5120 0 -5120 0 0
-5120z m4566 3922 c23 -130 38 -241 34 -245 -4 -5 -84 -21 -178 -37 -94 -16
-252 -45 -351 -64 -221 -44 -254 -45 -286 -10 -13 14 -31 45 -38 67 -21 60
-62 376 -51 386 5 5 99 26 209 46 110 20 290 53 400 74 112 21 204 34 210 29
5 -4 28 -115 51 -246z m652 229 c23 -28 9 -164 -24 -241 -16 -36 -32 -70 -36
-76 -16 -24 -158 -26 -158 -2 0 5 16 18 35 29 19 12 35 27 35 34 0 21 -67 73
-107 84 -59 16 -142 -9 -163 -49 -14 -26 -14 -25 21 -65 43 -49 30 -61 -53
-49 l-62 9 -40 90 c-33 73 -40 101 -40 150 1 110 -14 104 277 107 282 3 296 2
315 -21z m541 -56 c35 -11 67 -30 99 -61 55 -53 65 -59 114 -68 23 -4 46 -18
62 -37 23 -27 26 -40 26 -107 0 -62 -7 -97 -40 -192 -59 -175 -76 -210 -99
-210 -13 0 -22 8 -26 23 -46 208 -47 196 15 265 50 56 57 74 29 80 -8 1 -21
-16 -33 -43 -10 -25 -33 -57 -51 -71 -80 -61 -213 -76 -308 -35 -27 12 -52 21
-56 21 -8 0 -41 -149 -41 -186 0 -11 -6 -29 -14 -39 -12 -16 -16 -17 -30 -6
-19 16 -83 182 -121 313 -25 87 -27 102 -16 138 14 46 57 83 118 99 23 7 65
31 95 57 82 70 173 89 277 59z m711 -220 c69 -31 199 -93 289 -137 l163 -80
-7 -46 c-11 -84 -49 -145 -141 -229 -47 -43 -95 -82 -107 -86 -27 -11 -174 52
-184 78 -6 18 13 36 37 34 56 -4 69 1 80 35 10 30 8 39 -12 70 -18 28 -42 44
-106 71 -101 44 -154 45 -185 3 l-19 -26 28 -56 c15 -30 25 -59 21 -63 -4 -4
-47 14 -95 39 l-87 45 0 129 c0 151 15 203 77 270 l39 43 42 -18 c23 -10 98
-44 167 -76z m-3049 -11 c101 -52 207 -206 298 -438 40 -100 39 -170 -3 -198
-32 -21 -67 -7 -114 45 -107 119 -139 147 -167 147 -38 0 -82 -29 -96 -63 -16
-37 0 -144 41 -281 24 -78 30 -118 30 -188 0 -86 -1 -89 -26 -99 -15 -5 -35
-7 -45 -4 -33 11 -133 119 -222 242 -107 147 -128 167 -170 166 -52 -2 -86
-20 -93 -49 -4 -15 -1 -77 6 -139 17 -150 5 -195 -50 -195 -61 0 -117 74 -208
275 -64 141 -82 205 -82 292 0 85 29 136 109 192 36 25 89 69 118 98 74 74
280 173 362 173 31 1 85 9 121 20 80 23 152 25 191 4z m1547 -187 c-2 -136 -6
-170 -18 -177 -20 -13 -26 -12 -42 3 -10 11 -13 53 -12 183 1 93 3 172 3 176
2 14 37 14 54 -1 17 -14 18 -31 15 -184z m664 -95 c45 -26 47 -26 67 -8 11 10
45 24 76 31 62 15 66 12 78 -52 6 -32 6 -32 -26 -25 -18 4 -101 7 -185 7
l-153 0 6 35 c4 19 9 39 12 43 8 14 74 -3 125 -31z m-1098 -68 c4 -14 16 -38
27 -53 14 -20 19 -40 17 -67 l-3 -39 -70 -7 c-38 -4 -164 -19 -280 -32 -115
-14 -239 -26 -275 -28 l-65 -3 -9 84 c-6 60 -5 85 3 90 6 4 87 15 179 25 92 9
228 25 302 35 179 25 167 25 174 -5z m684 -47 c44 -45 58 -68 87 -150 33 -92
34 -100 20 -127 -21 -41 -56 -47 -100 -20 -20 12 -43 33 -51 46 l-16 23 -28
-21 c-28 -21 -37 -21 -127 -2 -27 5 -39 1 -67 -24 -20 -18 -52 -33 -76 -37
-37 -6 -44 -12 -59 -49 -50 -115 -127 -95 -152 39 -16 86 -5 176 28 237 15 28
33 53 41 55 7 3 32 -2 56 -11 43 -16 48 -16 162 9 117 27 157 44 168 71 12 32
60 15 114 -39z m2040 17 c62 -53 73 -117 33 -193 -7 -11 -37 -34 -69 -50 -31
-16 -89 -59 -129 -95 -56 -52 -75 -77 -88 -116 -14 -41 -25 -55 -59 -75 -24
-14 -58 -25 -76 -25 -38 0 -114 41 -125 67 -18 42 -23 109 -10 138 12 29 297
310 364 360 53 38 106 35 159 -11z m-818 -22 c21 -17 22 -21 10 -58 -16 -50
-167 -355 -184 -372 -9 -9 -19 -10 -39 -3 -48 19 -35 69 82 309 75 152 85 161
131 124z m-515 -118 c73 -22 136 -56 157 -84 39 -56 48 -263 14 -344 -12 -28
-21 -36 -41 -36 -28 0 -47 31 -60 103 -9 46 -19 47 -41 2 -33 -71 -110 -82
-159 -23 -33 39 -32 78 1 112 38 37 20 56 -53 56 -63 0 -78 -18 -44 -54 29
-31 29 -95 -1 -123 -54 -49 -127 -31 -157 39 -18 43 -19 43 -29 18 -6 -14 -16
-44 -22 -66 -12 -49 -30 -67 -62 -62 -33 4 -47 54 -47 165 -1 99 13 185 34
219 17 27 165 82 250 94 75 11 195 3 260 -16z m1641 -95 c19 -22 19 -22 -8
-15 -39 9 -78 25 -78 31 0 3 15 5 33 5 22 0 41 -8 53 -21z m-3067 -40 c73 -15
97 -42 106 -114 9 -72 0 -226 -15 -254 -6 -12 -24 -27 -39 -36 -75 -38 -640
-46 -759 -10 -76 23 -85 48 -80 221 4 179 13 187 218 204 127 11 501 4 569
-11z m3036 -13 c73 -33 215 -137 289 -211 101 -101 183 -235 200 -327 9 -51
-9 -91 -91 -195 -82 -106 -130 -154 -188 -187 -51 -30 -77 -33 -100 -9 -24 23
-15 65 30 140 20 34 34 66 31 72 -4 6 -23 2 -49 -9 -55 -25 -92 -25 -133 1
-43 26 -54 47 -54 99 0 79 35 114 127 127 24 3 45 9 48 13 2 3 -28 38 -66 76
-67 66 -71 68 -85 50 -8 -11 -14 -37 -14 -58 0 -27 -8 -46 -28 -69 -24 -27
-38 -33 -83 -37 -51 -4 -57 -2 -87 29 -46 48 -50 67 -26 162 9 38 -6 35 -78
-13 -65 -43 -97 -49 -122 -24 -33 33 -11 101 61 183 53 63 221 200 257 211 42
12 101 4 161 -24z m-5257 -61 c159 -98 345 -262 412 -364 44 -66 41 -108 -14
-201 -25 -41 -57 -97 -73 -123 -38 -66 -274 -380 -369 -492 -241 -283 -530
-572 -610 -610 -18 -8 -46 -15 -62 -15 -45 0 -138 54 -259 150 -189 149 -323
297 -323 356 0 52 174 324 352 551 262 333 583 669 743 778 56 38 104 31 203
-30z m2895 -29 c47 -20 124 -106 137 -155 22 -82 -4 -157 -73 -212 -61 -48
-61 -48 -149 -207 -63 -113 -72 -135 -78 -198 -9 -91 -40 -149 -101 -190 -93
-62 -194 -53 -269 25 -62 63 -89 144 -69 205 27 83 321 627 363 672 62 68 162
93 239 60z m1444 -60 c32 -27 54 -73 72 -149 14 -60 32 -84 91 -125 155 -107
152 -157 -26 -336 -133 -133 -201 -164 -244 -109 -19 25 -20 35 -14 118 6 80
4 95 -15 136 -25 53 -78 119 -121 149 -16 12 -54 25 -85 30 -92 15 -131 56
-109 114 8 21 160 112 226 135 29 11 73 28 98 40 59 27 92 26 127 -3z m1425
-243 c10 -9 18 -30 18 -47 0 -30 0 -30 -15 -9 -19 27 -37 73 -28 73 4 0 15 -7
25 -17z m-4007 -97 c19 -8 50 -26 68 -40 47 -36 109 -56 200 -66 44 -4 85 -14
92 -21 11 -12 75 -324 91 -449 8 -59 -14 -113 -58 -140 -59 -36 -289 -122
-406 -151 -154 -39 -317 -53 -542 -46 -215 7 -257 15 -505 98 -194 64 -274
107 -295 160 -11 25 -7 63 29 266 23 129 46 243 51 253 7 13 33 20 102 29 101
14 169 39 208 76 14 13 36 28 50 34 15 6 194 10 453 10 352 1 434 -2 462 -13z
m-1080 -35 c30 -7 30 -7 -16 -20 -25 -7 -58 -11 -74 -9 -27 3 -28 4 -11 21 18
17 47 20 101 8z m1357 -16 c-4 -12 -88 -9 -110 5 -12 7 1 9 48 8 38 -2 64 -7
62 -13z m4019 -117 c11 -13 38 -54 61 -93 23 -38 72 -121 110 -183 l68 -112
-37 -26 c-73 -50 -609 -391 -738 -468 -71 -44 -156 -96 -187 -118 -31 -21
-133 -84 -225 -139 -92 -56 -211 -131 -263 -166 l-94 -66 -26 31 c-40 49 -230
358 -230 376 0 9 17 27 38 40 20 13 141 89 267 169 127 79 295 187 375 239 80
52 174 112 210 133 36 21 128 80 205 130 205 135 427 275 438 275 5 0 17 -10
28 -22z m-1195 -43 c10 -8 31 -15 46 -15 68 0 288 -238 288 -310 0 -15 -11
-36 -25 -50 -31 -29 -98 -31 -165 -4 -37 15 -44 16 -48 3 -3 -8 -20 -29 -38
-46 -35 -36 -67 -41 -123 -22 -29 10 -35 9 -61 -16 -18 -17 -31 -43 -35 -67
-8 -46 -35 -78 -67 -78 -61 -1 -65 -6 -71 -93 -5 -75 -8 -84 -36 -109 -45 -40
-91 -38 -123 5 -30 39 -85 147 -121 237 -23 58 -25 75 -20 145 5 66 10 83 30
103 22 22 30 24 79 18 l54 -6 152 102 c134 90 153 107 156 133 6 48 38 85 76
85 18 0 41 -7 52 -15z m-2185 -468 c38 -25 48 -54 42 -112 -4 -38 1 -47 114
-195 116 -152 119 -155 162 -161 73 -10 86 -50 55 -175 -14 -56 -26 -76 -91
-150 -83 -95 -183 -174 -219 -174 -13 0 -39 14 -59 31 -41 37 -44 59 -16 167
19 71 19 72 -1 72 -11 0 -33 13 -49 29 -22 22 -29 39 -29 68 0 22 5 44 11 50
8 8 7 17 -1 34 -23 44 -42 58 -94 70 -76 17 -99 37 -99 88 l0 41 -83 0 c-79 0
-85 2 -119 31 -80 70 -34 136 166 236 152 75 141 71 215 72 48 1 68 -4 95 -22z
m-1978 -292 c4 -33 6 -299 5 -591 l-3 -530 -27 -42 c-16 -23 -39 -49 -53 -58
-27 -18 -123 -25 -126 -9 -1 6 34 33 79 60 120 74 119 72 87 134 l-26 53 -27
-18 c-15 -10 -63 -37 -107 -59 -93 -47 -100 -61 -61 -128 14 -24 26 -47 26
-50 0 -9 -432 -9 -494 -1 l-46 7 0 643 c0 603 1 643 18 647 9 3 181 4 382 3
l365 -1 8 -60z m477 -24 c-14 -8 -213 -21 -206 -14 2 2 23 7 47 12 59 12 179
13 159 2z m810 -15 c21 -10 25 -14 10 -10 -14 4 -78 9 -142 11 -73 3 -118 9
-118 15 0 17 208 4 250 -16z m2324 -62 l96 -86 -43 -51 c-106 -127 -240 -267
-255 -267 -17 0 -187 144 -187 158 0 10 277 332 286 332 3 0 50 -39 103 -86z
m-2362 26 c59 -17 130 -71 163 -124 38 -62 47 -166 20 -245 -20 -60 -83 -129
-148 -160 -68 -33 -166 -29 -242 9 l-60 29 -214 1 -214 0 -66 -32 c-135 -67
-275 -29 -365 100 -74 108 -42 283 69 368 81 62 96 63 580 64 270 0 454 -4
477 -10z m1662 -277 c63 -5 83 -11 104 -30 14 -13 37 -23 54 -23 41 0 87 -26
92 -53 13 -69 23 -204 15 -218 -8 -16 -132 -59 -229 -80 -70 -15 -264 -6 -345
16 -33 9 -98 35 -145 58 -101 50 -103 54 -70 194 l21 93 42 10 c23 6 58 17 77
25 19 7 42 16 50 19 16 6 199 0 334 -11z m946 -65 c98 -50 112 -198 26 -265
-13 -11 -50 -25 -82 -32 -83 -19 -245 -125 -281 -185 -35 -57 -68 -76 -136
-76 -64 0 -110 26 -138 80 -38 71 -9 170 63 213 21 12 113 74 206 138 92 64
181 123 198 132 41 23 93 21 144 -5z m-2190 -33 c13 -16 79 -266 80 -302 0
-28 -33 -48 -49 -29 -14 17 -81 271 -81 308 0 23 10 34 31 37 4 1 12 -6 19
-14z m-2891 -55 c44 -35 102 -57 189 -70 69 -11 85 -16 92 -34 11 -25 71 -325
77 -381 9 -77 -11 -90 -294 -186 -168 -57 -246 -69 -439 -69 -191 0 -336 22
-507 77 -227 73 -267 96 -267 157 0 56 67 394 81 412 5 6 41 15 79 18 82 8
124 24 171 63 43 37 67 38 468 36 313 -1 325 -2 350 -23z m-945 -16 c22 -8 10
-24 -19 -24 -27 0 -42 16 -23 23 19 8 24 8 42 1z m1156 -15 c0 -12 -37 -12
-44 0 -7 11 14 20 32 13 6 -2 12 -8 12 -13z m1538 -174 c70 -18 97 -37 133
-93 42 -66 65 -150 79 -283 26 -255 -44 -511 -153 -559 -89 -39 -323 -48 -430
-17 -62 18 -87 75 -48 111 10 9 51 23 91 30 65 13 101 29 89 40 -2 2 -25 13
-51 24 -55 24 -83 62 -82 112 3 115 128 168 210 89 48 -46 64 -30 64 66 0 41
-3 80 -6 89 -8 20 -40 21 -48 1 -9 -23 -68 -55 -102 -55 -71 0 -133 81 -119
157 6 35 65 93 94 93 10 0 24 6 30 14 16 19 -3 29 -87 46 -48 10 -68 20 -87
42 -32 37 -31 41 5 72 28 23 51 29 150 40 58 6 211 -5 268 -19z m1457 -51 c31
-42 63 -91 71 -109 17 -42 18 -109 2 -123 -25 -19 -460 -134 -494 -130 -21 2
-31 15 -55 71 l-28 67 15 88 c9 48 22 93 28 100 15 16 124 47 133 38 4 -3 -6
-19 -22 -35 -20 -22 -26 -37 -23 -55 4 -22 1 -25 -33 -31 -40 -7 -75 -37 -64
-54 12 -21 62 -11 100 19 31 24 47 30 89 30 129 1 221 107 121 140 -46 15 -44
27 8 40 23 6 47 13 52 15 30 11 48 -2 100 -71z m373 20 c4 -28 32 -54 107 -99
47 -28 69 -35 100 -33 l40 3 3 -44 c4 -54 -33 -176 -61 -202 -26 -24 -63 -24
-75 -1 -5 9 -13 52 -17 95 -4 42 -9 77 -11 77 -3 0 -18 -7 -34 -15 -28 -14
-31 -14 -50 5 -14 14 -19 28 -15 40 11 34 -4 41 -43 21 -51 -26 -119 -43 -142
-36 -39 12 -13 101 47 157 59 56 145 74 151 32z m-1618 -63 c13 -25 14 -79 1
-65 -6 5 -17 26 -26 47 -13 32 -13 37 0 37 8 0 19 -9 25 -19z m2387 -53 c51
-54 105 -161 97 -193 -16 -64 -437 -335 -521 -335 -29 0 -63 35 -115 122 -48
78 -49 113 -5 155 56 53 207 155 327 220 138 75 170 80 217 31z m-1721 14 c8
-5 13 -309 17 -1104 4 -914 3 -1099 -9 -1109 -15 -12 -563 -7 -583 5 -12 8
-17 2197 -4 2209 9 9 565 9 579 -1z m714 -177 c0 -3 -49 -30 -110 -60 -166
-83 -173 -69 -10 22 65 37 120 54 120 38z m172 -38 c84 -64 189 -220 217 -322
25 -93 -22 -148 -264 -309 -242 -161 -390 -235 -470 -236 -70 0 -154 91 -238
257 -49 99 -50 102 -38 143 25 82 207 235 442 370 121 69 254 130 286 130 12
0 41 -15 65 -33z m-2951 -287 l458 0 36 -31 35 -31 0 -477 c0 -360 -3 -482
-13 -501 -7 -14 -28 -33 -47 -43 -33 -16 -100 -17 -1131 -15 -1080 3 -1097 3
-1119 23 -50 45 -50 43 -50 530 0 494 0 490 54 526 28 19 381 28 915 23 222
-2 610 -4 862 -4z m6622 -120 c5 -4 -15 -16 -45 -25 -29 -10 -70 -26 -90 -37
-43 -21 -50 -9 -20 30 32 41 124 60 155 32z m794 5 c23 -6 73 -59 73 -76 0 -5
-17 -1 -37 9 -21 11 -63 27 -93 37 l-55 18 30 13 c29 13 36 13 82 -1z m-182
-30 c178 -39 287 -93 327 -162 31 -52 58 -224 58 -363 0 -195 -32 -292 -100
-298 -61 -6 -113 69 -126 186 -8 72 -19 71 -60 -9 -31 -62 -73 -92 -138 -96
-62 -5 -111 17 -143 66 -46 69 -42 140 12 220 18 28 30 52 27 55 -33 18 -222
15 -222 -5 0 -4 16 -34 35 -66 42 -70 45 -119 13 -183 -29 -56 -64 -81 -122
-87 -75 -9 -118 17 -174 101 l-46 71 -7 -45 c-19 -114 -31 -150 -59 -180 -33
-35 -87 -41 -112 -12 -69 80 -78 406 -16 602 32 105 147 167 403 216 89 17
352 11 450 -11z m-5824 -44 c-16 -37 -46 -53 -35 -18 19 60 25 70 36 59 8 -8
8 -19 -1 -41z m-32 -215 c8 -9 11 -59 9 -152 l-3 -139 -50 -8 c-27 -5 -65 -6
-82 -2 l-33 6 0 139 0 140 -210 0 -210 0 0 -146 0 -147 -82 8 c-46 4 -86 9
-90 11 -12 7 -10 248 2 278 l10 26 364 0 c298 0 366 -3 375 -14z m-195 -44
c11 -6 1 -201 -11 -213 -5 -5 -83 -8 -174 -7 l-164 3 -3 109 c-2 81 1 112 10
118 13 9 326 0 342 -10z m1419 -250 c21 -8 36 -16 34 -18 -7 -7 -147 30 -147
38 0 11 63 0 113 -20z m-1255 -38 c108 -15 12 -22 -331 -22 -345 -1 -436 4
-378 23 12 3 34 4 49 1 15 -3 54 -1 87 4 61 9 495 4 573 -6z m1262 -22 c30
-16 219 -133 420 -261 394 -251 453 -298 484 -387 37 -108 13 -223 -64 -307
-66 -73 -130 -101 -230 -101 -66 0 -82 4 -137 33 -73 39 -98 64 -138 138 -27
50 -41 63 -140 125 -256 161 -285 175 -359 182 -123 12 -214 80 -256 193 -41
110 -20 228 56 312 95 106 240 135 364 73z m-1237 -32 c16 0 17 -12 15 -152
l-3 -152 -40 -7 c-94 -16 -658 -15 -701 1 l-25 10 3 147 3 148 90 5 c68 4 464
4 658 0z m1942 -350 c3 -6 -1 -7 -9 -4 -18 7 -21 14 -7 14 6 0 13 -4 16 -10z
m131 -88 c54 -42 108 -114 102 -133 -2 -7 -13 5 -24 27 -12 21 -43 57 -70 79
-27 22 -65 53 -84 68 l-35 28 31 -15 c17 -8 53 -32 80 -54z m-4627 27 c25 -11
68 -40 97 -65 63 -54 100 -74 135 -74 65 0 92 -93 79 -273 -14 -189 -101 -480
-133 -448 -7 7 -19 33 -28 59 -25 76 -50 84 -244 79 -191 -4 -227 -15 -251
-74 -23 -58 -37 -83 -45 -83 -30 0 -94 204 -116 366 -25 193 -2 352 54 367 10
3 31 8 46 11 15 4 55 31 88 62 33 30 72 60 87 66 83 33 169 36 231 7z m2471
11 c0 -6 -47 -10 -121 -10 -77 0 -118 4 -114 10 4 6 55 10 121 10 69 0 114 -4
114 -10z m-617 -24 c129 -25 153 -61 168 -262 19 -238 0 -501 -43 -607 -25
-63 -168 -97 -322 -78 -149 19 -175 48 -202 223 -18 117 -14 508 5 588 24 96
36 106 161 131 104 21 146 22 233 5z m-1233 -166 l0 -170 235 0 c217 0 235 1
236 18 0 9 1 82 1 162 l0 145 -173 5 c-148 5 -133 6 96 5 l270 0 5 -101 c3
-56 3 -132 0 -170 l-5 -68 -35 -9 c-19 -5 -164 -11 -323 -14 -292 -5 -475 6
-496 31 -5 6 -7 77 -4 174 l6 162 93 0 94 0 0 -170z m441 50 c3 -36 4 -93 1
-128 l-5 -62 -201 2 -201 3 -3 105 c-2 58 0 115 3 128 l5 22 198 -2 197 -3 6
-65z m1413 -52 c11 -42 7 -183 -6 -196 -16 -16 -214 -17 -224 -1 -4 7 -9 54
-12 105 l-5 94 94 1 c52 0 103 4 114 9 30 13 32 12 39 -12z m-1059 -125 c-4
-51 -11 -93 -16 -93 -13 0 -11 147 4 194 10 35 12 38 16 16 1 -14 0 -66 -4
-117z m2219 64 c44 -35 110 -83 145 -107 63 -42 64 -43 40 -55 -13 -7 -42 -38
-64 -69 -22 -30 -46 -58 -54 -61 -16 -6 -21 -3 -160 107 -109 87 -127 108 -92
108 15 0 21 6 21 23 0 26 56 117 72 117 6 0 47 -28 92 -63z m1519 -77 c23 -12
69 -39 102 -60 33 -21 188 -119 345 -218 163 -103 303 -199 327 -224 83 -87
108 -172 78 -274 -57 -199 -241 -304 -403 -229 -86 40 -631 386 -758 481 -70
52 -71 54 -98 136 -32 97 -30 151 10 229 81 161 257 231 397 159z m-3958 -90
c12 -19 -24 -22 -277 -24 -334 -1 -488 5 -488 20 0 16 755 20 765 4z m95 -5
c0 -16 -55 -22 -64 -6 -8 13 5 21 36 21 18 0 28 -5 28 -15z m2591 -11 c7 -9
65 -55 128 -102 144 -109 141 -107 141 -121 0 -19 -103 -150 -118 -150 -13 -1
-87 56 -230 176 -34 29 -67 53 -72 53 -19 0 -9 17 51 88 63 75 78 83 100 56z
m-2638 -36 c21 -1 41 -6 45 -12 11 -19 1 -330 -11 -338 -7 -4 -50 -7 -97 -6
l-86 2 -1 165 -2 166 -215 3 c-137 1 -216 6 -216 12 0 7 24 8 63 5 34 -3 136
-1 227 4 91 4 185 7 210 4 25 -2 62 -4 83 -5z m1136 3 c16 -10 7 -13 -69 -25
l-35 -6 24 20 c25 21 57 25 80 11z m1086 -3 c31 -14 33 -26 3 -22 -79 11 -98
16 -93 25 8 13 59 11 90 -3z m-2839 -14 c-3 -9 -6 -90 -6 -180 l0 -164 -89 0
c-50 0 -92 4 -95 8 -3 5 -7 82 -9 171 -5 191 -13 179 122 180 72 1 82 -1 77
-15z m432 -156 l-3 -123 -200 0 -200 0 -3 100 c-5 160 -26 145 208 145 l201 0
-3 -122z m1394 84 c14 -8 34 -33 44 -54 l17 -38 357 0 357 0 20 23 c11 12 23
30 26 39 11 32 68 58 125 58 79 0 106 -18 142 -96 10 -23 37 -57 60 -75 45
-36 71 -79 89 -144 21 -82 61 -317 71 -426 9 -98 9 -120 -6 -167 -14 -44 -26
-61 -63 -88 -39 -28 -55 -34 -101 -34 -37 0 -65 6 -87 19 -26 16 -126 136
-189 226 -12 17 -17 18 -32 7 -38 -28 -99 -52 -132 -52 -61 0 -135 45 -173
103 -17 26 -20 27 -107 27 l-89 0 -28 -42 c-43 -64 -85 -88 -153 -88 -48 0
-64 5 -99 30 -23 17 -46 28 -50 25 -5 -2 -40 -48 -77 -102 -70 -98 -125 -145
-184 -158 -41 -9 -105 11 -145 46 -50 45 -62 108 -47 258 16 158 45 322 73
417 20 68 30 85 76 129 28 27 61 70 71 95 24 56 35 65 92 78 53 12 104 6 142
-16z m2103 -192 c4 -6 -10 -10 -34 -10 -22 0 -43 5 -46 10 -4 6 10 10 34 10
22 0 43 -4 46 -10z m20 -59 c63 -21 81 -46 128 -192 32 -96 38 -125 35 -183
-3 -76 -16 -94 -60 -83 -18 5 -35 24 -57 66 -46 87 -52 88 -65 10 -14 -84
-109 -119 -175 -63 -39 33 -51 86 -27 127 33 59 14 70 -78 42 -76 -23 -98 -49
-52 -61 32 -8 64 -43 66 -74 4 -51 -1 -69 -29 -99 -24 -25 -37 -31 -72 -31
-36 0 -47 6 -81 41 -21 22 -42 37 -48 34 -5 -3 -9 -39 -9 -81 0 -81 -10 -104
-46 -104 -29 0 -49 23 -78 90 -61 138 -84 310 -48 363 26 41 143 122 208 147
206 77 361 93 488 51z m-4523 -98 c22 -26 68 -113 68 -129 0 -21 -19 -17 -52
11 -34 29 -62 26 -92 -8 -39 -46 4 -208 71 -267 63 -55 123 -30 123 52 0 73
30 53 75 -50 20 -45 25 -68 19 -82 -15 -32 -176 -190 -221 -217 -30 -18 -53
-23 -84 -21 l-42 3 -143 308 -143 309 27 25 c15 14 54 39 87 54 55 27 69 29
176 29 98 0 118 -3 131 -17z m1288 -3 c12 -8 13 -12 2 -19 -12 -7 -11 -14 2
-39 19 -37 21 -96 3 -110 -10 -9 -506 -18 -674 -12 -10 0 -13 25 -13 90 l0 90
280 2 c154 2 304 4 333 6 28 1 59 -2 67 -8z m-810 -40 c23 -43 -26 -78 -214
-157 -159 -67 -185 -72 -211 -43 -18 20 -18 21 1 39 10 10 64 39 120 64 56 25
138 64 184 86 85 40 103 42 120 11z m1166 -167 c15 -27 52 -88 82 -138 31 -49
79 -134 108 -188 28 -53 56 -103 62 -110 20 -24 83 -180 78 -193 -6 -16 -85
-67 -245 -157 l-124 -70 -19 22 c-10 13 -41 64 -69 115 -29 50 -104 177 -167
281 -152 250 -148 243 -129 262 20 20 368 222 384 222 7 1 24 -20 39 -46z
m4837 -59 c55 -29 453 -276 525 -328 53 -37 72 -71 72 -126 0 -93 -244 -654
-343 -786 -71 -97 -275 -330 -373 -429 -75 -76 -220 -193 -349 -282 -17 -11
-109 -67 -205 -123 -378 -221 -420 -230 -517 -113 -90 108 -384 507 -389 528
-4 16 12 46 61 116 85 122 94 143 114 269 l17 106 114 129 c63 71 205 228 315
349 110 120 249 274 308 340 59 66 115 125 123 129 9 5 46 15 83 23 91 19 200
75 269 138 60 55 101 86 115 86 4 0 31 -12 60 -26z m-183 -3 c0 -19 -134 -110
-146 -99 -2 2 20 27 48 56 33 33 59 52 74 52 13 0 24 -4 24 -9z m-5557 -23
c-4 -12 -92 -42 -99 -35 -10 10 15 35 39 40 31 6 62 3 60 -5z m140 -65 c124
-63 337 -331 337 -422 0 -35 -28 -61 -64 -61 -23 0 -48 14 -91 50 -66 54 -113
67 -100 28 3 -13 9 -43 11 -68 10 -88 -57 -156 -145 -147 -83 9 -136 75 -127
160 4 36 2 49 -10 54 -24 9 -174 -117 -174 -148 0 -5 21 -9 46 -9 78 0 144
-60 144 -131 0 -47 -39 -107 -84 -128 -54 -27 -70 -26 -130 3 -41 20 -76 25
-76 11 0 -1 15 -28 34 -59 61 -102 55 -186 -13 -186 -58 0 -150 92 -266 266
-102 154 -113 200 -70 292 76 163 277 348 488 448 131 61 231 78 290 47z
m4246 -39 c29 -8 87 -22 129 -30 69 -12 81 -18 114 -55 47 -51 59 -109 60
-277 1 -140 -12 -206 -44 -223 -44 -24 -78 18 -107 136 -17 65 -37 87 -78 83
-52 -4 -71 -36 -89 -149 -28 -181 -71 -278 -112 -253 -28 17 -49 71 -91 228
-40 157 -52 176 -101 176 -36 0 -53 -22 -80 -105 -31 -95 -47 -117 -79 -113
-42 5 -63 63 -69 190 -8 170 27 297 92 337 17 11 62 25 100 31 38 6 81 17 95
25 36 20 193 19 260 -1z m-2085 -194 c180 -46 317 -127 435 -258 l74 -82 71 0
c174 -1 297 -105 347 -295 23 -89 22 -175 -6 -358 -16 -108 -108 -456 -155
-590 -46 -130 -166 -372 -196 -396 -36 -29 -88 -27 -118 3 -25 24 -30 44 -59
231 -16 98 -54 237 -96 345 l-22 55 38 30 c79 64 137 122 173 175 52 78 53 80
38 80 -8 0 -36 -30 -63 -66 -89 -122 -267 -234 -444 -282 -139 -37 -324 -36
-466 1 -144 39 -228 81 -352 180 -10 7 -13 3 -13 -14 0 -17 15 -34 51 -59 37
-27 48 -40 45 -55 -3 -11 -27 -90 -54 -176 -27 -85 -57 -205 -67 -265 -9 -60
-25 -128 -35 -152 -30 -67 -86 -76 -137 -21 -19 21 -98 178 -155 309 -106 242
-209 675 -210 885 -1 185 73 332 197 392 67 33 151 47 187 32 l31 -13 90 98
c89 96 174 164 252 204 49 24 207 70 284 82 78 12 250 2 335 -20z m1372 -51
c33 -20 64 -72 64 -106 0 -10 -9 -37 -19 -60 -31 -68 -105 -91 -184 -58 -24
10 -70 15 -132 15 -62 0 -108 -5 -132 -15 -59 -25 -107 -20 -148 16 -19 17
-40 48 -46 69 -10 32 -9 44 7 76 37 73 52 78 262 85 227 6 288 2 328 -22z
m-4326 -120 c-7 -11 -14 -18 -17 -15 -8 8 5 36 17 36 7 0 7 -6 0 -21z m1168
-238 c20 -11 65 -45 99 -76 48 -43 72 -58 105 -63 36 -6 46 -13 61 -43 56
-114 32 -384 -54 -613 -31 -83 -65 -88 -78 -10 -9 53 -40 72 -141 85 -98 12
-259 4 -307 -16 -18 -8 -37 -24 -42 -37 -5 -13 -15 -38 -21 -55 -23 -61 -50
-37 -93 82 -41 115 -60 228 -60 370 -2 195 10 220 108 240 18 3 55 29 89 61
79 75 121 94 219 94 57 0 88 -5 115 -19z m3411 -47 c74 -21 107 -56 126 -129
23 -88 36 -360 25 -519 -25 -370 -62 -413 -349 -404 -220 7 -253 32 -288 220
-14 75 -17 141 -16 348 3 313 19 428 65 456 68 42 333 59 437 28z m-527 -221
c-2 -43 -7 -112 -11 -153 -6 -66 -8 -72 -19 -53 -9 16 -10 50 -3 135 5 62 13
121 16 131 15 37 22 13 17 -60z m869 -371 c-13 -43 -47 -105 -70 -126 -17 -15
-23 -16 -36 -6 -8 7 -15 16 -15 20 0 12 111 140 120 140 5 0 5 -13 1 -28z
m-3763 -241 c64 -43 173 -116 242 -162 69 -46 171 -114 227 -152 l103 -69 -61
-89 c-34 -49 -63 -89 -66 -89 -2 0 -54 35 -116 79 -62 43 -134 91 -162 107
-27 15 -122 76 -210 135 -88 58 -170 111 -182 118 -13 6 -23 16 -23 21 0 19
105 180 117 180 7 0 66 -36 131 -79z m1210 -111 c45 -16 120 -39 167 -51 75
-19 86 -25 104 -55 24 -40 52 -49 122 -37 48 7 53 11 61 39 8 30 11 32 95 49
49 9 128 32 177 51 50 19 95 33 102 30 29 -11 136 -356 111 -356 -2 0 -37 11
-78 25 -145 50 -192 57 -452 62 -278 6 -374 -5 -521 -58 -44 -16 -81 -29 -83
-29 -16 0 31 190 74 298 14 34 28 62 32 62 4 0 44 -13 89 -30z m2461 -195 c16
-8 38 -33 50 -57 43 -90 75 -331 52 -400 -11 -34 -17 -38 -114 -72 -227 -81
-832 -181 -951 -159 -46 9 -73 59 -112 209 -30 118 -34 149 -29 202 5 44 13
68 26 81 26 24 297 114 424 140 151 32 439 69 538 70 60 1 97 -4 116 -14z
m-2144 -189 c55 -9 132 -23 170 -31 39 -7 110 -19 159 -26 49 -6 119 -21 155
-33 54 -17 71 -29 98 -64 44 -58 58 -111 43 -172 -22 -93 -106 -160 -200 -160
-42 0 -64 7 -118 40 -55 32 -91 44 -196 65 -83 17 -146 25 -175 21 -175 -20
-162 -21 -216 16 -106 71 -129 214 -47 302 65 69 117 76 327 42z"/>
<path d="M4340 9239 c-58 -10 -124 -22 -147 -25 -70 -11 -70 -12 -35 -220 17
-101 36 -193 41 -203 6 -10 23 -22 38 -26 28 -7 270 31 294 46 11 6 7 48 -20
216 -18 114 -35 214 -37 221 -4 15 -3 15 -134 -9z"/>
<path d="M3940 9158 c-7 -13 -24 -35 -38 -50 l-25 -28 36 -15 c20 -8 37 -19
37 -24 0 -5 6 -11 14 -14 8 -3 25 12 44 38 l30 43 -21 19 c-69 59 -64 57 -77
31z"/>
<path d="M3823 9015 c-3 -9 2 -24 11 -34 13 -14 16 -28 11 -55 -6 -32 -4 -37
19 -47 21 -10 29 -10 39 0 9 10 8 15 -8 27 -14 10 -18 24 -17 50 4 52 -40 98
-55 59z"/>
<path d="M3970 8852 l-23 -19 22 -22 c24 -24 39 -24 55 2 8 12 8 22 0 34 -15
25 -28 26 -54 5z"/>
<path d="M3777 8832 c-10 -10 -17 -26 -17 -36 0 -19 66 -102 87 -111 14 -5 73
20 73 31 0 12 -72 105 -93 119 -27 19 -30 19 -50 -3z"/>
<path d="M4025 8774 c-18 -19 -16 -33 8 -48 21 -13 50 2 55 29 7 33 -36 46
-63 19z"/>
<path d="M4810 9260 c-20 -4 37 -7 135 -7 116 0 156 2 125 8 -55 9 -212 9
-260 -1z"/>
<path d="M4865 9140 c-13 -6 10 -9 69 -9 49 -1 87 1 85 3 -10 9 -136 14 -154
6z"/>
<path d="M5085 9104 c-15 -15 -15 -18 1 -35 20 -23 76 -25 93 -5 10 12 8 19
-8 35 -25 25 -63 27 -86 5z"/>
<path d="M5584 9088 c-9 -21 -10 -48 -6 -103 2 -18 9 -20 95 -20 l92 0 3 56
c4 78 -9 89 -102 89 -66 0 -74 -2 -82 -22z"/>
<path d="M5364 9041 c-57 -35 -46 -121 14 -121 48 0 72 25 72 75 0 34 -5 47
-19 55 -26 14 -31 13 -67 -9z"/>
<path d="M5911 9021 c-12 -8 -12 -12 -2 -25 17 -21 47 -20 55 0 12 31 -20 46
-53 25z"/>
<path d="M5855 8960 c-14 -16 -16 -23 -7 -32 18 -18 48 14 35 36 -8 15 -11 15
-28 -4z"/>
<path d="M5985 8960 c-7 -12 12 -40 26 -40 5 0 9 11 9 25 0 25 -23 35 -35 15z"/>
<path d="M5397 8872 c-24 -26 -21 -47 9 -71 34 -27 38 -26 69 5 l26 26 -27 29
c-32 33 -54 36 -77 11z"/>
<path d="M6450 8945 c0 -3 37 -23 83 -46 89 -45 218 -97 202 -81 -26 26 -285
141 -285 127z"/>
<path d="M6326 8831 c15 -15 255 -135 307 -153 81 -29 52 -2 -50 47 -109 52
-251 115 -261 115 -3 0 -2 -4 4 -9z"/>
<path d="M6642 8628 c-6 -6 -12 -20 -12 -30 0 -20 69 -68 99 -68 23 0 44 24
39 46 -7 38 -101 77 -126 52z"/>
<path d="M3340 8911 c-5 -11 -10 -28 -10 -38 0 -11 -7 -28 -15 -39 -26 -34
-18 -51 33 -69 74 -26 97 -29 111 -11 7 9 11 27 8 41 -3 18 1 29 14 36 37 20
22 45 -43 73 -75 31 -84 32 -98 7z m88 -74 c3 -17 -22 -46 -40 -47 -15 0 -21
52 -7 61 21 13 43 6 47 -14z"/>
<path d="M3242 8734 c-26 -18 -29 -56 -6 -78 21 -21 40 -20 64 4 24 24 26 53
4 74 -19 20 -34 20 -62 0z"/>
<path d="M3352 8688 c-14 -14 -16 -57 -3 -76 14 -22 64 -10 78 18 10 20 10 29
-1 45 -16 24 -56 31 -74 13z"/>
<path d="M3016 8629 c-13 -19 -13 -25 0 -50 17 -34 52 -39 77 -11 22 24 21 45
-1 65 -26 23 -58 21 -76 -4z"/>
<path d="M2637 8591 c-32 -15 -63 -34 -68 -42 -16 -26 -10 -109 12 -148 56
-100 183 -110 239 -18 22 35 27 125 10 157 -11 20 -79 64 -115 73 -11 4 -45
-6 -78 -22z m119 -47 c-6 -15 -9 -15 -32 7 -23 21 -23 24 -7 30 23 9 48 -14
39 -37z m-136 -42 c0 -15 -5 -22 -12 -20 -16 6 -22 33 -13 56 5 14 7 14 15 2
6 -8 10 -25 10 -38z m106 -16 c15 -12 17 -18 8 -33 -16 -25 -35 -26 -64 -3
-24 20 -25 21 -6 35 25 19 37 19 62 1z m88 -59 c-3 -9 -10 -17 -15 -17 -14 0
-22 27 -15 47 6 15 8 15 22 2 8 -9 12 -23 8 -32z m-123 -46 c22 -18 22 -20 7
-26 -24 -9 -44 -1 -58 24 -9 18 -8 21 9 21 10 0 29 -9 42 -19z"/>
<path d="M3065 8477 c-103 -103 -6 -283 132 -245 20 5 52 25 70 43 30 30 33
39 33 90 0 99 -47 145 -150 145 -46 0 -56 -4 -85 -33z m154 -11 c32 -17 51
-54 51 -100 0 -42 -48 -93 -97 -102 -31 -6 -39 -2 -74 32 -32 31 -39 45 -39
77 0 48 13 72 48 91 35 19 76 20 111 2z"/>
<path d="M3116 8415 c-14 -13 -26 -31 -26 -38 0 -25 33 -57 65 -63 44 -8 69
15 68 62 -2 64 -57 85 -107 39z m74 -34 c0 -30 -19 -45 -45 -35 -20 8 -19 23
2 46 24 27 43 22 43 -11z"/>
<path d="M4442 8598 c-26 -26 -8 -88 25 -88 15 0 53 36 53 50 0 14 -38 50 -53
50 -7 0 -18 -5 -25 -12z"/>
<path d="M4237 8594 c-11 -11 -8 -63 5 -87 11 -21 11 -21 19 -2 4 11 8 29 8
41 1 24 -21 58 -32 48z"/>
<path d="M4337 8573 c-13 -13 -7 -54 9 -60 18 -7 45 6 51 24 8 24 -43 54 -60
36z"/>
<path d="M4042 8529 c-12 -4 -29 -6 -37 -3 -17 7 -30 -19 -21 -42 5 -13 9 -14
20 -5 8 7 27 11 42 9 21 -2 29 2 32 16 5 25 -9 36 -36 25z"/>
<path d="M5132 8568 c-7 -7 -12 -20 -12 -29 0 -9 -10 -23 -22 -32 -22 -14 -22
-16 -6 -32 24 -25 52 -12 44 20 -8 32 18 45 42 21 16 -16 16 -18 -5 -36 -26
-21 -30 -55 -8 -64 10 -4 19 5 29 27 7 18 23 41 35 51 31 28 27 47 -9 44 -21
-2 -35 4 -46 20 -17 25 -25 27 -42 10z"/>
<path d="M4706 8488 c-28 -44 -49 -96 -44 -110 3 -7 26 -24 52 -38 l45 -24 32
29 c37 36 62 82 55 100 -5 14 -96 65 -115 65 -6 0 -17 -10 -25 -22z"/>
<path d="M5010 8475 c0 -8 7 -15 15 -15 8 0 15 4 15 9 0 5 -7 11 -15 15 -9 3
-15 0 -15 -9z"/>
<path d="M4885 8440 c4 -6 11 -8 16 -5 14 9 11 15 -7 15 -8 0 -12 -5 -9 -10z"/>
<path d="M4951 8434 c-26 -18 -19 -34 15 -34 17 0 24 5 24 19 0 28 -13 33 -39
15z"/>
<path d="M5052 8418 c-38 -48 -8 -92 46 -66 30 15 40 42 22 63 -15 18 -54 19
-68 3z"/>
<path d="M4844 8363 c-14 -15 -23 -34 -22 -42 5 -27 53 -25 84 3 l29 26 -24
20 c-30 26 -37 25 -67 -7z"/>
<path d="M7115 8557 c-2 -6 -6 -38 -9 -69 -5 -43 -3 -58 6 -59 13 -1 148 0
157 1 3 0 -8 13 -24 30 -25 26 -27 32 -17 56 16 34 6 47 -29 40 -16 -3 -40 -1
-54 4 -19 7 -27 6 -30 -3z m79 -78 c-8 -14 -30 -11 -43 5 -10 11 -8 17 6 25
14 8 21 6 30 -6 7 -9 10 -20 7 -24z"/>
<path d="M7051 8383 c-16 -35 0 -49 30 -25 20 17 21 22 10 36 -19 22 -26 20
-40 -11z"/>
<path d="M7120 8390 c-12 -8 -12 -10 3 -16 23 -8 127 5 127 17 0 12 -111 12
-130 -1z"/>
<path d="M6992 8318 c-13 -13 -17 -48 -4 -48 4 0 16 7 27 15 17 14 17 17 4 30
-12 12 -17 13 -27 3z"/>
<path d="M6811 8254 c-14 -18 -21 -41 -21 -70 0 -56 37 -89 90 -80 52 8 72 38
64 95 -10 71 -18 81 -69 81 -35 0 -48 -5 -64 -26z m77 -62 c2 -7 -6 -12 -17
-12 -21 0 -27 11 -14 24 9 9 26 2 31 -12z"/>
<path d="M5462 8337 c-26 -28 -28 -45 -6 -75 23 -33 92 -28 113 9 36 65 -55
122 -107 66z m64 -28 c10 -17 -13 -36 -27 -22 -12 12 -4 33 11 33 5 0 12 -5
16 -11z"/>
<path d="M5724 8339 c-10 -17 11 -33 32 -21 16 9 16 10 -4 21 -15 8 -23 8 -28
0z"/>
<path d="M5835 8175 c-30 -30 -31 -49 -4 -76 22 -22 66 -20 81 4 15 24 8 66
-14 81 -30 21 -35 20 -63 -9z m45 -35 c0 -5 -4 -10 -10 -10 -5 0 -10 5 -10 10
0 6 5 10 10 10 6 0 10 -4 10 -10z"/>
<path d="M5590 8170 c-24 -24 -24 -29 -5 -57 29 -41 68 -34 95 18 8 14 6 23
-10 39 -25 25 -54 26 -80 0z m51 -33 c-13 -13 -26 -3 -16 12 3 6 11 8 17 5 6
-4 6 -10 -1 -17z"/>
<path d="M3945 8300 l-60 -5 -3 -72 c-3 -80 -11 -87 -57 -57 -49 32 -101 -15
-70 -63 12 -17 15 -35 11 -59 -6 -30 -4 -34 19 -40 42 -10 58 2 53 39 -7 42
-1 57 23 57 17 0 19 -8 19 -79 0 -73 2 -79 23 -85 45 -12 502 -7 515 6 7 7 12
40 12 79 0 70 7 84 34 73 19 -7 21 -35 4 -52 -19 -19 10 -44 46 -40 30 3 31 5
28 45 -2 34 2 44 18 53 26 14 25 26 -6 67 -30 39 -49 42 -76 8 -35 -45 -47
-33 -50 53 l-3 77 -210 0 c-115 1 -237 -2 -270 -5z"/>
<path d="M7336 8229 c-31 -37 -33 -77 -6 -111 51 -66 166 -13 146 67 -19 74
-95 98 -140 44z m74 -44 c15 -18 6 -45 -15 -45 -18 0 -30 24 -21 45 7 19 20
19 36 0z"/>
<path d="M7627 8003 c-11 -10 -8 -43 4 -43 6 0 19 5 30 11 16 8 18 13 8 25
-12 15 -31 18 -42 7z"/>
<path d="M7319 7973 c-11 -3 -19 -20 -24 -50 -5 -38 -3 -49 13 -66 17 -17 26
-18 69 -11 l48 9 2 57 c1 50 -1 57 -20 62 -24 6 -63 6 -88 -1z m71 -52 c0 -10
-7 -24 -15 -31 -19 -16 -45 3 -45 31 0 14 7 19 30 19 23 0 30 -5 30 -19z"/>
<path d="M7865 7868 c-2 -7 -5 -22 -7 -33 -2 -14 -11 -20 -32 -20 -29 -1 -66
-35 -66 -61 0 -28 46 -67 79 -67 45 0 56 16 54 75 -2 41 2 54 20 68 18 15 19
20 8 34 -16 19 -50 21 -56 4z"/>
<path d="M7681 7816 c-16 -19 -11 -46 12 -60 25 -16 52 4 52 40 0 24 -5 30
-26 32 -14 2 -31 -4 -38 -12z"/>
<path d="M7543 7748 c-57 -60 0 -154 74 -123 78 33 66 128 -17 141 -28 5 -39
1 -57 -18z m61 -45 c8 -21 -10 -41 -24 -27 -11 11 -3 44 10 44 4 0 11 -8 14
-17z"/>
<path d="M7920 7721 c0 -32 24 -48 46 -30 18 15 18 24 -2 43 -25 25 -44 20
-44 -13z"/>
<path d="M2213 8065 c-39 -52 -40 -61 -10 -76 12 -6 23 -13 25 -14 2 -2 -7
-22 -20 -45 l-23 -41 37 -34 c21 -19 41 -35 45 -35 5 0 21 11 37 25 16 14 31
25 33 25 2 0 14 -11 27 -25 l23 -25 42 41 41 41 -25 30 c-29 35 -31 50 -9 83
15 23 15 27 0 50 -10 14 -29 31 -43 38 -22 10 -27 8 -45 -16 -24 -33 -44 -34
-77 -3 l-26 24 -32 -43z m171 -61 c3 -8 2 -14 -2 -14 -10 0 -32 22 -32 32 0
12 28 -2 34 -18z m-99 -84 c3 -5 -1 -10 -10 -10 -9 0 -13 5 -10 10 3 6 8 10
10 10 2 0 7 -4 10 -10z m95 1 c0 -6 -4 -13 -10 -16 -5 -3 -10 1 -10 9 0 9 5
16 10 16 6 0 10 -4 10 -9z"/>
<path d="M1858 7988 c-35 -40 -98 -116 -140 -168 -41 -52 -154 -187 -252 -299
-212 -245 -272 -327 -255 -347 7 -8 89 -79 183 -158 94 -79 217 -182 274 -230
56 -47 106 -86 111 -86 5 0 26 21 47 48 22 26 93 110 160 187 66 77 166 196
221 265 55 69 135 166 178 215 42 50 90 106 106 126 l29 37 -128 103 c-70 56
-198 164 -286 238 -87 75 -164 137 -171 139 -7 2 -41 -30 -77 -70z m168 -160
c58 -44 249 -203 256 -213 4 -5 8 -17 8 -25 0 -17 -108 -154 -244 -309 -50
-58 -113 -135 -141 -172 -57 -77 -170 -199 -184 -199 -25 0 -301 242 -301 264
0 23 550 676 569 676 5 0 21 -10 37 -22z"/>
<path d="M1987 7787 c-8 -7 -52 -56 -96 -111 -66 -80 -80 -103 -75 -122 7 -28
-3 -45 -83 -144 -49 -62 -57 -68 -79 -60 -20 8 -29 4 -61 -31 -58 -63 -113
-139 -113 -158 0 -27 149 -159 221 -197 33 -16 22 -23 122 85 48 52 57 68 57
99 0 31 11 49 71 120 63 72 76 82 105 82 19 0 34 3 34 8 0 4 38 54 85 112 47
57 85 107 85 110 0 20 -175 175 -231 205 -21 11 -30 12 -42 2z m107 -249 c5
-9 7 -20 3 -24 -8 -8 -47 24 -47 38 0 15 32 5 44 -14z m-41 -91 c-5 -9 -35 6
-52 27 -7 8 -10 20 -6 26 7 11 65 -40 58 -53z m-203 34 c0 -13 -129 -165 -144
-170 -13 -5 -14 -6 73 102 62 77 71 85 71 68z m60 -17 c0 -12 -143 -184 -152
-184 -13 0 13 40 81 123 49 60 71 79 71 61z m74 -50 c20 -20 20 -28 0 -45 -9
-8 -41 -46 -70 -85 -57 -78 -69 -89 -84 -79 -10 6 17 43 98 131 33 37 42 64
20 64 -14 -1 -104 -111 -121 -147 -11 -25 -37 -31 -37 -9 0 24 139 186 160
186 10 0 26 -7 34 -16z"/>
<path d="M2463 7873 c-19 -21 -42 -49 -51 -62 -15 -22 -15 -25 12 -48 37 -31
57 -26 78 19 10 21 27 42 38 48 26 14 26 56 1 70 -31 16 -41 12 -78 -27z"/>
<path d="M1250 6928 c-22 -24 -22 -39 1 -95 11 -28 11 -34 -4 -51 -15 -16 -16
-24 -6 -46 16 -34 48 -42 113 -27 28 6 64 10 80 9 41 -4 53 20 39 73 -9 35 -8
47 4 66 15 22 15 27 -1 60 -16 33 -19 35 -54 28 -55 -10 -104 -11 -129 -2 -16
6 -27 2 -43 -15z"/>
<path d="M1522 6758 c-7 -7 -12 -20 -12 -29 0 -10 -13 -27 -30 -39 -36 -25
-40 -64 -10 -80 30 -16 60 -3 66 29 4 17 16 31 34 39 50 23 49 63 -2 81 -37
13 -32 13 -46 -1z"/>
<path d="M5031 8196 c-138 -45 -170 -224 -59 -328 l30 -28 -21 -26 c-21 -27
-29 -74 -12 -74 18 0 40 31 47 65 6 32 8 34 33 28 53 -15 91 -5 147 38 72 55
84 74 84 131 0 70 -24 117 -81 161 -57 45 -103 54 -168 33z m123 -30 c69 -29
116 -134 92 -207 -8 -23 -28 -45 -66 -72 -46 -32 -61 -38 -91 -34 -95 12 -153
74 -153 162 0 120 110 196 218 151z"/>
<path d="M5097 8123 c-12 -12 -7 -60 8 -73 33 -28 85 22 64 62 -10 18 -58 25
-72 11z"/>
<path d="M4987 8093 c-11 -11 -8 -58 5 -71 19 -19 45 -14 62 10 20 28 20 33 0
52 -16 16 -55 22 -67 9z"/>
<path d="M5125 8007 c-17 -13 -18 -18 -7 -42 10 -22 18 -26 44 -23 17 2 36 11
42 21 25 39 -37 74 -79 44z"/>
<path d="M5032 7984 c-27 -18 -28 -45 -4 -67 23 -21 48 -22 56 -1 11 30 6 72
-10 78 -20 8 -16 9 -42 -10z"/>
<path d="M4910 7678 c-25 -42 -25 -58 0 -58 21 0 40 27 40 59 0 34 -19 34 -40
-1z"/>
<path d="M4697 7547 c-39 -40 -62 -96 -53 -132 9 -35 56 -86 94 -102 48 -20
119 -8 153 26 32 33 43 93 26 151 -17 58 -52 83 -125 88 -57 4 -61 3 -95 -31z
m100 -14 c5 -15 -36 -28 -49 -15 -6 6 -7 15 -3 22 9 14 47 9 52 -7z m83 -48
c0 -26 -14 -33 -25 -15 -9 14 1 40 15 40 5 0 10 -11 10 -25z m-65 -40 c0 -22
-22 -30 -44 -16 -21 14 -5 43 21 39 15 -2 23 -10 23 -23z m9 -96 c-3 -5 -10
-7 -15 -3 -5 3 -7 10 -3 15 3 5 10 7 15 3 5 -3 7 -10 3 -15z"/>
<path d="M6481 8134 c-18 -23 -23 -36 -23 -64 -1 -3 2 -16 5 -30 5 -20 1 -28
-24 -42 -55 -32 -60 -94 -12 -143 34 -33 72 -32 105 3 36 39 39 56 21 106
l-17 45 28 22 c39 30 33 75 -13 106 -43 29 -45 29 -70 -3z m0 -217 c-1 -12
-15 -9 -19 4 -3 6 1 10 8 8 6 -3 11 -8 11 -12z"/>
<path d="M6607 7933 c-11 -11 -8 -48 5 -61 33 -33 78 1 63 48 -6 20 -53 29
-68 13z"/>
<path d="M6556 7789 c-32 -38 -33 -73 -4 -93 24 -17 65 -21 84 -8 20 13 36 53
30 76 -4 17 -60 56 -80 56 -3 0 -16 -14 -30 -31z"/>
<path d="M6717 7803 c-4 -3 -7 -23 -7 -43 0 -20 -5 -41 -11 -47 -20 -20 -2
-46 27 -39 17 5 35 1 51 -9 14 -9 29 -13 33 -8 10 11 29 116 23 125 -2 5 -22
8 -43 8 -21 0 -42 5 -45 10 -7 12 -19 13 -28 3z m73 -86 c0 -14 -5 -17 -22
-12 -35 11 -39 19 -21 44 15 23 17 23 30 6 7 -11 13 -27 13 -38z"/>
<path d="M3165 7739 c-46 -23 -53 -56 -79 -409 -16 -209 -13 -224 44 -252 88
-42 380 -70 590 -56 122 8 294 41 328 64 12 8 27 26 32 40 14 35 -24 511 -44
557 -28 69 -17 67 -456 66 -240 0 -403 -4 -415 -10z m765 -99 c5 -8 10 -104
10 -213 l0 -197 -26 -10 c-14 -6 -158 -10 -334 -10 -176 0 -320 4 -334 10
l-26 10 0 205 c0 204 0 206 23 214 12 5 170 8 350 7 279 -1 329 -3 337 -16z"/>
<path d="M2873 7603 c-14 -3 -25 -14 -29 -27 -3 -13 -19 -33 -35 -45 -23 -17
-29 -29 -29 -57 0 -33 2 -36 24 -32 20 4 25 -1 35 -33 22 -74 89 -73 118 1 12
29 19 37 28 30 16 -14 25 -2 25 33 0 19 -10 38 -30 57 -16 15 -34 39 -40 54
-9 26 -19 28 -67 19z m48 -83 c17 0 20 -6 17 -31 -4 -39 -30 -59 -55 -43 -32
20 -29 92 3 80 9 -3 25 -6 35 -6z"/>
<path d="M4290 7542 c-18 -14 -22 -25 -16 -45 10 -40 45 -45 73 -12 22 24 23
29 10 49 -19 28 -39 31 -67 8z"/>
<path d="M4121 7491 c-24 -18 -24 -20 -7 -45 26 -41 46 -43 73 -12 22 25 23
30 10 50 -19 28 -46 30 -76 7z"/>
<path d="M2860 7305 c-11 -13 -6 -18 31 -34 24 -10 63 -22 86 -26 35 -5 44 -4
49 10 9 24 -13 40 -74 53 -69 15 -77 15 -92 -3z"/>
<path d="M4202 7305 c-65 -20 -72 -29 -65 -88 3 -29 9 -56 14 -61 10 -11 112
2 134 18 15 11 17 22 11 79 -9 76 -12 78 -94 52z"/>
<path d="M2852 7207 c-19 -22 3 -38 79 -57 75 -20 94 -16 87 16 -2 12 -21 24
-58 36 -67 21 -94 22 -108 5z"/>
<path d="M8290 7585 c-10 -12 -9 -20 4 -40 31 -47 67 -26 41 25 -17 34 -27 37
-45 15z"/>
<path d="M8134 7431 c-41 -25 -47 -36 -29 -51 20 -17 19 -33 -5 -55 -26 -23
-25 -33 6 -79 l26 -38 25 24 25 23 18 -22 c23 -29 50 -29 84 -2 25 19 25 22
11 49 -14 28 -14 30 5 42 27 17 25 51 -4 85 -24 28 -25 28 -54 11 -29 -17 -29
-17 -40 7 -14 30 -27 31 -68 6z"/>
<path d="M7908 7240 c-17 -12 -30 -35 -34 -57 -6 -32 -3 -40 25 -65 42 -38 83
-37 122 1 35 35 37 70 7 106 -32 36 -85 43 -120 15z"/>
<path d="M7607 7162 c-24 -26 -21 -51 8 -64 21 -9 28 -8 45 7 26 23 25 40 -2
59 -28 20 -31 20 -51 -2z"/>
<path d="M7682 7048 c-17 -17 -15 -67 4 -75 23 -9 64 14 64 36 0 11 -10 27
-22 35 -27 19 -31 19 -46 4z"/>
<path d="M7757 6922 c-24 -26 -21 -51 8 -64 21 -9 28 -8 45 7 25 22 25 37 2
58 -24 22 -35 21 -55 -1z"/>
<path d="M7257 6802 c-37 -40 -9 -102 46 -102 57 0 74 84 22 108 -36 16 -49
15 -68 -6z"/>
<path d="M6950 6706 c0 -19 14 -28 34 -20 13 5 14 9 5 20 -15 18 -39 18 -39 0z"/>
<path d="M7122 6708 c-17 -17 -15 -73 4 -88 19 -17 61 -3 81 26 27 42 -49 98
-85 62z"/>
<path d="M7006 6633 c-4 -9 -3 -20 1 -24 13 -13 37 7 30 25 -8 21 -23 20 -31
-1z"/>
<path d="M7046 6561 c-17 -18 -16 -20 4 -26 26 -8 45 7 37 29 -8 21 -20 20
-41 -3z"/>
<path d="M7090 6485 c0 -21 28 -31 43 -16 9 9 8 14 -3 21 -22 14 -40 12 -40
-5z"/>
<path d="M7114 7540 c-33 -13 -37 -38 -9 -56 30 -20 45 -11 45 26 0 34 -8 40
-36 30z"/>
<path d="M7196 7515 c-30 -30 15 -76 49 -51 21 15 15 40 -14 55 -15 8 -23 7
-35 -4z"/>
<path d="M7073 7424 c-8 -22 9 -49 33 -49 30 0 27 59 -4 63 -14 2 -25 -3 -29
-14z"/>
<path d="M7179 7411 c-20 -16 -22 -23 -13 -38 14 -23 53 -23 68 0 8 12 8 22 0
34 -16 25 -28 26 -55 4z"/>
<path d="M6991 7351 c-8 -5 -11 -16 -8 -25 5 -14 11 -15 27 -6 21 11 23 31 4
37 -5 1 -15 -1 -23 -6z"/>
<path d="M7075 7305 c-36 -35 -32 -60 12 -84 38 -20 71 -14 87 17 16 32 7 65
-23 81 -30 17 -50 13 -76 -14z"/>
<path d="M6932 7268 c-18 -18 -15 -36 9 -48 26 -14 51 4 47 34 -3 24 -37 33
-56 14z"/>
<path d="M6612 7237 c-14 -15 -22 -36 -22 -60 0 -20 -4 -39 -10 -42 -18 -11
-11 -53 13 -81 21 -25 27 -26 55 -16 26 9 35 8 56 -9 17 -13 33 -18 46 -14 30
9 53 50 47 82 -3 15 0 37 6 50 9 19 7 31 -8 59 -19 35 -30 40 -55 24 -10 -6
-24 -3 -46 11 -41 25 -56 24 -82 -4z m98 -108 c0 -10 -34 -12 -43 -2 -4 3 -2
12 4 20 9 10 15 10 25 2 8 -6 14 -15 14 -20z"/>
<path d="M6841 7246 c-9 -10 -9 -16 -1 -21 17 -10 37 12 24 25 -8 8 -15 6 -23
-4z"/>
<path d="M6826 7144 c-36 -94 64 -161 109 -73 20 37 19 45 -5 69 -25 25 -95
28 -104 4z"/>
<path d="M4740 7119 c-42 -19 -42 -19 -36 -62 6 -37 3 -46 -18 -66 -23 -22
-24 -26 -11 -51 23 -44 40 -54 74 -42 25 9 34 7 55 -9 33 -26 65 -24 97 7 27
26 27 28 13 56 -15 28 -14 32 5 52 28 30 26 48 -8 85 -31 33 -59 39 -80 19
-10 -11 -16 -9 -30 9 l-18 21 -43 -19z m85 -118 c3 -5 1 -12 -4 -15 -13 -8
-42 4 -35 15 7 12 31 12 39 0z"/>
<path d="M4727 6852 c-35 -39 -7 -107 48 -118 48 -9 65 8 65 62 0 38 -4 45
-30 59 -38 20 -63 19 -83 -3z"/>
<path d="M4903 6844 c-6 -16 12 -34 35 -34 15 0 15 6 2 31 -13 23 -28 25 -37
3z"/>
<path d="M4902 6748 c-18 -18 -15 -34 14 -53 32 -21 57 -5 52 34 -2 19 -10 27
-28 29 -14 2 -31 -3 -38 -10z"/>
<path d="M5017 6697 c-3 -8 -2 -20 3 -27 11 -18 42 -4 38 17 -4 22 -34 29 -41
10z"/>
<path d="M4905 6600 c-26 -29 -24 -79 4 -102 49 -39 121 -9 121 52 0 61 -85
95 -125 50z"/>
<path d="M5091 6606 c-21 -25 -10 -61 18 -61 31 0 50 28 35 53 -15 23 -38 26
-53 8z"/>
<path d="M5196 6578 c-19 -26 -5 -48 29 -48 25 0 39 23 30 51 -8 26 -40 24
-59 -3z"/>
<path d="M5072 6498 c-18 -18 -14 -46 7 -58 27 -14 28 -13 48 16 16 25 16 27
-2 40 -23 17 -37 18 -53 2z"/>
<path d="M5180 6471 c-23 -44 20 -69 55 -31 15 16 15 22 5 35 -17 21 -47 19
-60 -4z"/>
<path d="M2246 6804 c-9 -24 -7 -477 3 -492 6 -10 72 -12 314 -10 293 3 307 4
334 24 38 29 43 70 36 302 l-6 192 -337 0 c-299 0 -339 -2 -344 -16z m524
-103 c57 -29 74 -70 78 -186 4 -88 2 -103 -16 -125 -17 -21 -22 -23 -36 -11
-9 8 -21 34 -27 58 -9 35 -14 41 -25 32 -8 -6 -14 -17 -14 -25 0 -19 -36 -36
-68 -32 -17 2 -33 14 -46 37 -18 32 -18 34 -2 62 22 37 14 49 -35 49 -44 0
-48 -9 -23 -58 17 -35 8 -64 -26 -82 -33 -18 -54 -11 -87 27 l-31 38 -12 -47
c-15 -60 -34 -78 -58 -54 -14 14 -17 37 -17 131 0 107 1 115 25 140 14 15 34
32 45 38 68 37 306 42 375 8z"/>
<path d="M2382 6624 c-30 -21 -25 -54 10 -74 35 -19 62 -5 66 34 6 51 -32 71
-76 40z"/>
<path d="M2572 6618 c6 -18 28 -21 28 -4 0 9 -7 16 -16 16 -9 0 -14 -5 -12
-12z"/>
<path d="M2717 6613 c-12 -11 -7 -40 9 -53 21 -18 49 9 39 39 -6 20 -34 28
-48 14z"/>
<path d="M2472 6508 c-7 -7 -12 -25 -12 -40 0 -22 5 -28 21 -28 26 0 59 17 59
31 0 10 -39 48 -50 49 -4 0 -11 -5 -18 -12z"/>
<path d="M2642 6478 c3 -38 27 -48 52 -22 26 25 16 49 -22 52 -32 3 -33 2 -30
-30z"/>
<path d="M2330 6120 c-11 -11 -20 -26 -20 -34 0 -7 -14 -16 -31 -20 -27 -5
-30 -9 -27 -38 2 -27 8 -34 30 -36 22 -3 27 -9 30 -35 3 -29 6 -32 37 -32 31
0 36 4 43 33 6 21 15 32 26 32 24 0 42 19 42 46 0 22 -17 34 -51 34 -14 0 -19
7 -19 29 0 17 -6 31 -16 35 -22 8 -22 8 -44 -14z"/>
<path d="M2850 6110 c-23 -23 -24 -29 -10 -64 8 -21 16 -26 44 -26 36 0 56 20
56 54 0 20 -35 56 -55 56 -8 0 -24 -9 -35 -20z"/>
<path d="M2710 6038 c-11 -12 -20 -27 -20 -33 0 -19 39 -55 60 -55 46 0 70 78
31 100 -30 15 -48 12 -71 -12z"/>
<path d="M2463 5861 c-36 -22 -52 -59 -32 -72 16 -9 109 38 109 56 0 14 -21
35 -34 35 -6 0 -25 -9 -43 -19z"/>
<path d="M2593 5854 c-30 -23 -42 -52 -27 -67 10 -10 94 36 100 55 13 44 -25
50 -73 12z"/>
<path d="M6412 6739 c-61 -81 -64 -71 39 -155 l70 -57 60 59 c32 32 59 63 59
70 0 11 -157 154 -169 154 -4 0 -30 -32 -59 -71z"/>
<path d="M6292 6580 c1 -26 5 -30 30 -30 24 0 28 4 28 30 0 27 -3 30 -29 30
-26 0 -30 -3 -29 -30z"/>
<path d="M6295 6510 c-7 -12 33 -49 53 -50 18 0 15 8 -14 35 -31 29 -31 28
-39 15z"/>
<path d="M6402 6483 c2 -10 10 -18 18 -18 22 0 18 29 -3 33 -14 3 -18 -1 -15
-15z"/>
<path d="M6453 6475 c-3 -9 -3 -18 0 -21 9 -9 27 6 27 22 0 19 -19 18 -27 -1z"/>
<path d="M4061 6729 c-73 -29 -151 -135 -151 -203 1 -52 28 -148 47 -167 10
-10 45 -34 77 -53 46 -27 71 -36 105 -36 91 1 201 77 222 154 16 59 14 158 -4
193 -20 38 -80 91 -123 109 -38 16 -137 18 -173 3z m170 -42 c24 -13 59 -43
77 -66 28 -37 32 -50 32 -101 0 -32 -5 -71 -11 -87 -31 -82 -149 -146 -228
-123 -43 12 -105 55 -126 86 -25 38 -37 120 -24 168 32 122 168 182 280 123z"/>
<path d="M4100 6641 c-22 -43 1 -81 49 -81 34 0 51 17 51 52 0 46 -78 69 -100
29z"/>
<path d="M4215 6545 c-31 -30 -31 -46 -2 -73 28 -26 50 -28 71 -6 32 31 11
104 -30 104 -8 0 -26 -11 -39 -25z"/>
<path d="M4000 6540 c-15 -28 -3 -78 21 -85 45 -15 75 19 67 76 -2 20 -10 25
-40 27 -29 2 -39 -1 -48 -18z"/>
<path d="M4106 6445 c-19 -19 -21 -56 -4 -73 7 -7 26 -12 43 -12 38 0 55 16
55 51 0 31 -3 34 -46 43 -23 5 -36 2 -48 -9z"/>
<path d="M3260 6658 c-62 -32 -90 -77 -90 -145 0 -110 63 -173 173 -173 98 0
161 66 158 166 -2 87 -45 148 -118 165 -57 13 -75 11 -123 -13z m190 -79 c0
-14 -7 -19 -25 -19 -33 0 -45 28 -20 46 22 16 45 2 45 -27z m-170 7 c0 -32
-18 -43 -37 -23 -20 20 -10 47 17 47 15 0 20 -7 20 -24z m73 -48 c9 -7 19 -25
22 -39 6 -25 4 -27 -34 -31 -40 -3 -41 -3 -41 27 0 28 15 55 30 55 3 0 14 -6
23 -12z m-135 -39 c-3 -31 5 -41 45 -53 15 -5 26 -56 11 -56 -17 0 -46 24 -59
50 -17 33 -20 90 -4 90 6 0 9 -14 7 -31z m242 -52 c0 -17 -54 -69 -63 -60 -12
11 -8 36 10 55 19 21 53 24 53 5z m-120 -21 c0 -2 -7 -6 -15 -10 -8 -3 -15 -1
-15 4 0 6 7 10 15 10 8 0 15 -2 15 -4z m4 -55 c4 -5 -3 -7 -14 -4 -23 6 -26
13 -6 13 8 0 17 -4 20 -9z"/>
<path d="M3620 6503 c-19 -7 -30 -24 -24 -35 8 -13 89 -9 109 6 18 13 17 15
-20 25 -44 12 -43 12 -65 4z"/>
<path d="M3770 6485 c-10 -12 -9 -15 6 -16 11 -1 32 -3 48 -5 31 -3 66 10 66
26 0 17 -106 12 -120 -5z"/>
<path d="M5550 6458 c-8 -19 -28 -135 -43 -242 -3 -24 50 -52 122 -66 70 -13
256 -13 304 1 l38 10 -3 142 c-3 140 -3 142 -28 153 -14 7 -105 15 -202 19
l-178 6 -10 -23z m351 -48 c14 -8 16 -22 12 -82 -3 -40 -6 -79 -8 -85 -5 -14
-167 -18 -262 -7 l-53 7 0 78 c0 120 -10 113 154 105 77 -4 148 -12 157 -16z"/>
<path d="M5430 6402 c-36 -12 -41 -59 -7 -71 32 -12 62 2 62 29 0 26 -32 50
-55 42z"/>
<path d="M6070 6340 c0 -13 7 -20 20 -20 13 0 20 7 20 20 0 13 -7 20 -20 20
-13 0 -20 -7 -20 -20z"/>
<path d="M5994 6329 c-10 -17 13 -36 27 -22 12 12 4 33 -11 33 -5 0 -12 -5
-16 -11z"/>
<path d="M5433 6253 c-18 -7 -16 -30 3 -37 8 -3 25 -1 37 5 20 11 20 12 2 25
-20 15 -23 15 -42 7z"/>
<path d="M5995 6240 c-3 -5 -3 -21 1 -35 4 -17 13 -25 29 -25 27 0 59 34 52
55 -7 17 -72 21 -82 5z"/>
<path d="M6681 6418 c-19 -13 -42 -39 -52 -58 -28 -52 -24 -92 14 -142 32 -42
34 -43 99 -46 64 -3 68 -2 101 31 38 38 50 80 38 125 -20 69 -49 94 -126 106
-33 6 -47 3 -74 -16z m139 -27 c14 -10 31 -35 39 -55 12 -32 12 -41 -4 -77
-24 -51 -49 -69 -100 -69 -52 0 -84 17 -108 58 -17 29 -18 38 -7 77 12 42 39
76 70 88 24 10 83 -2 110 -22z"/>
<path d="M6692 6363 c-13 -26 -4 -43 23 -43 27 0 40 26 24 46 -16 19 -37 17
-47 -3z"/>
<path d="M6770 6342 c0 -11 7 -25 15 -32 21 -18 47 -5 43 22 -4 31 -58 40 -58
10z"/>
<path d="M6675 6284 c-15 -15 -15 -18 1 -35 23 -26 42 -24 50 5 11 44 -19 62
-51 30z"/>
<path d="M6760 6270 c-20 -12 -1 -45 26 -45 22 0 32 34 12 46 -17 11 -20 11
-38 -1z"/>
<path d="M6587 6192 c-23 -25 -21 -32 7 -32 24 0 41 23 30 41 -8 14 -19 11
-37 -9z"/>
<path d="M6495 6130 c-16 -17 -16 -20 -2 -26 20 -7 57 13 57 31 0 22 -34 18
-55 -5z"/>
<path d="M6313 6125 c-69 -29 -81 -106 -25 -157 37 -34 58 -40 103 -28 74 20
93 108 35 166 -37 37 -62 41 -113 19z m67 -80 c0 -16 -27 -32 -37 -22 -3 4 -3
13 0 22 8 20 37 20 37 0z m-20 -64 c0 -14 -18 -23 -30 -16 -6 4 -8 11 -5 16 8
12 35 12 35 0z"/>
<path d="M985 6286 c-27 -27 -30 -45 -43 -281 -13 -218 -10 -243 33 -261 119
-50 468 -63 655 -24 156 32 147 11 127 297 -20 298 -4 277 -208 286 -79 4
-233 7 -342 7 -195 0 -198 0 -222 -24z m655 -85 c11 -21 14 -259 4 -310 l-6
-31 -283 0 c-234 0 -285 2 -295 14 -8 11 -10 59 -6 178 3 90 5 164 5 166 1 1
129 2 286 2 271 0 285 -1 295 -19z"/>
<path d="M726 6140 c-24 -27 -36 -50 -36 -70 0 -17 4 -30 10 -30 5 0 25 -13
43 -30 19 -16 41 -30 48 -30 18 0 99 81 99 99 0 21 -87 101 -109 101 -10 0
-35 -18 -55 -40z m92 -57 c4 -28 -34 -42 -55 -20 -23 23 -9 49 24 45 20 -2 29
-9 31 -25z"/>
<path d="M1952 6143 c-38 -14 -33 -83 7 -83 24 0 55 35 48 54 -7 18 -38 35
-55 29z"/>
<path d="M1811 6094 c-26 -19 -27 -50 -2 -64 36 -18 68 11 56 50 -8 26 -29 31
-54 14z"/>
<path d="M750 5925 c0 -8 12 -17 28 -21 15 -3 44 -10 66 -16 69 -17 77 22 8
42 -55 15 -102 13 -102 -5z"/>
<path d="M1848 5927 c-37 -10 -37 -10 -32 -56 3 -25 7 -52 10 -58 7 -26 96
-10 116 21 4 6 8 32 8 59 0 47 0 47 -32 46 -18 -1 -50 -6 -70 -12z"/>
<path d="M745 5850 c-11 -18 3 -27 66 -44 63 -18 87 -13 76 17 -9 25 -129 48
-142 27z"/>
<path d="M3400 6050 c-31 -31 -28 -102 6 -129 72 -57 162 8 133 96 -6 18 -19
38 -29 43 -32 17 -88 12 -110 -10z m84 -56 c11 -28 7 -35 -16 -32 -30 4 -39
48 -10 48 11 0 23 -7 26 -16z"/>
<path d="M3206 5880 c-20 -22 -36 -44 -36 -50 0 -17 62 -80 79 -80 19 0 81 56
81 74 0 18 -62 96 -76 96 -6 0 -28 -18 -48 -40z m60 -36 c8 -29 -7 -49 -30
-41 -19 7 -21 38 -4 55 18 18 27 15 34 -14z"/>
<path d="M3481 5687 c-15 -19 -3 -49 18 -45 9 2 16 13 16 27 0 29 -17 37 -34
18z"/>
<path d="M3205 5565 c-54 -53 -16 -142 56 -129 48 10 59 21 59 66 0 44 -35 88
-70 88 -11 0 -32 -11 -45 -25z m49 -44 c4 -5 3 -16 0 -25 -5 -12 -10 -14 -20
-6 -7 7 -10 18 -7 26 6 16 19 18 27 5z"/>
<path d="M3376 5511 c-22 -24 -15 -48 18 -61 25 -9 25 -9 9 -49 -14 -37 -14
-42 1 -66 20 -30 75 -35 101 -9 31 31 -5 114 -49 114 -18 0 -21 6 -21 42 0 36
-3 44 -21 46 -11 2 -28 -6 -38 -17z"/>
<path d="M3547 5424 c-13 -13 -7 -55 9 -61 24 -9 51 23 38 45 -12 19 -36 27
-47 16z"/>
<path d="M3482 5283 c-13 -26 -4 -43 24 -43 29 0 41 24 24 45 -17 20 -37 19
-48 -2z"/>
<path d="M4685 5935 c-38 -12 -61 -23 -50 -24 26 -1 143 27 164 39 32 19 -43
9 -114 -15z"/>
<path d="M4715 5815 l-30 -14 30 6 c17 3 39 10 50 14 l20 8 -20 0 c-11 0 -33
-6 -50 -14z"/>
<path d="M5225 6075 c-54 -54 -12 -106 59 -74 31 15 35 26 24 67 -7 25 -14 32
-34 32 -14 0 -36 -11 -49 -25z"/>
<path d="M5350 5950 c0 -5 7 -10 16 -10 8 0 12 5 9 10 -3 6 -10 10 -16 10 -5
0 -9 -4 -9 -10z"/>
<path d="M5483 5920 c-51 -21 -32 -90 20 -76 28 7 42 35 32 66 -7 22 -18 24
-52 10z"/>
<path d="M5790 5879 c-85 -54 -160 -105 -167 -112 -10 -10 -7 -21 17 -56 33
-51 31 -61 -10 -61 -20 0 -33 -7 -41 -22 -10 -19 -8 -25 20 -47 17 -14 31 -32
31 -38 0 -16 32 -17 47 -2 9 9 6 19 -9 39 -19 26 -18 50 2 50 4 0 23 -23 40
-51 20 -30 38 -48 46 -45 7 3 55 31 106 64 51 32 121 75 155 96 35 20 65 41
68 47 3 5 -8 30 -26 55 -25 37 -29 48 -18 55 20 13 34 6 37 -19 4 -25 20 -28
47 -8 19 14 19 15 2 34 -10 11 -17 31 -15 43 2 18 -4 27 -25 37 -36 17 -57 9
-57 -22 0 -43 -19 -38 -51 14 -17 27 -34 50 -37 49 -4 0 -77 -45 -162 -100z"/>
<path d="M3896 5984 c-23 -23 -20 -51 8 -69 44 -29 91 18 66 65 -13 24 -52 26
-74 4z"/>
<path d="M4033 5788 c-8 -40 -11 -43 -43 -46 -41 -4 -50 -15 -50 -60 0 -52 15
-72 55 -72 32 0 34 -2 37 -37 l3 -38 53 -3 c54 -3 55 -3 66 49 4 19 14 28 43
35 l38 9 0 55 0 55 -39 5 c-34 4 -39 9 -42 34 -5 51 -10 56 -63 56 l-50 0 -8
-42z"/>
<path d="M4016 5414 c-46 -46 -29 -146 29 -172 45 -21 105 -10 128 22 17 26
27 85 18 110 -19 47 -47 66 -100 66 -39 0 -53 -5 -75 -26z"/>
<path d="M3896 5014 c-23 -22 -20 -71 3 -84 27 -14 37 -13 55 6 30 30 10 94
-29 94 -7 0 -21 -7 -29 -16z"/>
<path d="M4050 4998 c-19 -32 -19 -32 2 -55 26 -28 49 -29 71 -5 22 24 21 55
-1 75 -28 25 -50 21 -72 -15z"/>
<path d="M4227 5012 c-22 -24 -21 -55 1 -75 24 -22 45 -21 65 1 21 23 22 56 1
76 -21 21 -47 20 -67 -2z"/>
<path d="M4062 4460 c-27 -11 -44 -52 -36 -86 21 -84 148 -49 129 35 -10 46
-50 68 -93 51z"/>
<path d="M4053 4242 c-40 -25 -30 -95 16 -118 41 -21 91 19 91 71 0 34 -75 67
-107 47z"/>
<path d="M4124 4035 c-7 -30 7 -51 30 -42 22 9 20 30 -4 52 -18 17 -19 16 -26
-10z"/>
<path d="M4020 4035 c-15 -18 -6 -45 13 -45 8 0 20 7 27 15 10 12 10 18 0 30
-16 19 -24 19 -40 0z"/>
<path d="M3904 4029 c-3 -6 1 -18 10 -27 15 -15 17 -15 32 0 19 19 11 38 -16
38 -10 0 -22 -5 -26 -11z"/>
<path d="M4237 4034 c-4 -4 -7 -16 -7 -26 0 -14 6 -19 23 -16 14 2 22 10 22
23 0 20 -25 32 -38 19z"/>
<path d="M4999 5714 c-55 -17 -121 -82 -151 -151 -45 -103 -3 -259 88 -324 51
-37 153 -63 210 -54 57 8 160 77 199 133 28 41 30 49 29 135 -1 104 -17 148
-76 204 -72 69 -188 91 -299 57z m189 -136 c42 -26 62 -65 62 -123 0 -59 -28
-100 -84 -126 -55 -25 -96 -24 -136 4 -62 42 -87 125 -56 185 45 87 131 111
214 60z"/>
<path d="M4579 5432 c-66 -42 -83 -73 -76 -142 7 -80 49 -161 124 -241 73 -77
110 -94 172 -80 42 9 111 54 111 71 0 6 -48 87 -106 181 -99 160 -157 239
-173 239 -4 0 -27 -13 -52 -28z m64 -29 c29 -33 220 -328 221 -342 2 -23 -63
-61 -104 -61 -84 0 -230 188 -230 296 0 38 6 50 40 84 45 45 51 47 73 23z"/>
<path d="M850 5370 c-228 -7 -248 -11 -269 -57 -7 -16 -11 -152 -11 -393 l0
-368 26 -31 26 -31 303 0 c337 0 315 -5 315 70 0 25 5 40 16 44 22 8 623 6
654 -3 21 -6 25 -14 28 -51 2 -25 7 -49 11 -53 13 -13 739 -8 761 5 10 7 23
23 29 35 15 33 15 757 0 785 -24 44 -56 48 -433 48 -249 0 -357 -3 -362 -11
-3 -6 -6 -30 -6 -53 1 -22 -2 -47 -6 -53 -6 -10 -85 -11 -347 -5 l-340 7 0 50
c0 28 -4 56 -8 63 -9 13 -21 13 -387 2z m1085 -230 l0 -25 -337 0 c-300 0
-339 2 -354 17 -36 36 -13 38 344 36 l347 -3 0 -25z m-9 -114 c15 -12 17 -18
8 -33 -11 -17 -32 -18 -330 -16 -176 2 -329 5 -341 8 -22 5 -31 33 -16 48 3 4
153 7 333 7 268 0 330 -3 346 -14z m-981 -5 c3 -6 -3 -15 -14 -20 -27 -15 -31
-14 -31 9 0 21 33 29 45 11z m-127 -129 c3 -16 -2 -22 -17 -22 -26 0 -36 17
-20 36 16 19 33 13 37 -14z m239 12 c8 -21 -13 -42 -28 -27 -13 13 -5 43 11
43 6 0 13 -7 17 -16z m867 -10 c13 -5 16 -24 16 -103 0 -53 -4 -102 -8 -108
-12 -19 -671 -11 -683 9 -10 15 -12 192 -2 201 8 9 656 9 677 1z m670 -26 c10
-37 7 -158 -4 -179 -10 -18 -24 -19 -255 -19 l-245 0 0 103 c0 57 3 107 7 110
3 4 115 7 249 7 l242 0 6 -22z m-1659 -98 c0 -8 -8 -16 -17 -18 -13 -2 -18 3
-18 18 0 15 5 20 18 18 9 -2 17 -10 17 -18z"/>
<path d="M1323 4805 c-13 -9 -23 -20 -23 -25 0 -18 77 -31 164 -28 71 2 91 6
100 20 19 32 -7 42 -117 46 -82 3 -106 0 -124 -13z"/>
<path d="M1614 4795 c-14 -35 14 -45 126 -45 95 0 109 2 126 21 28 32 5 39
-129 39 -96 0 -119 -3 -123 -15z"/>
<path d="M2184 4858 c-25 -12 -44 -48 -44 -84 0 -67 107 -102 149 -48 39 49
23 112 -33 134 -33 12 -44 12 -72 -2z"/>
<path d="M2401 4843 c-12 -10 -24 -35 -27 -55 -11 -66 55 -107 129 -79 49 19
54 116 7 141 -29 16 -86 12 -109 -7z"/>
<path d="M9605 5210 c-13 -41 43 -70 64 -33 13 25 -5 53 -34 53 -15 0 -26 -7
-30 -20z"/>
<path d="M8834 5141 c-59 -36 -65 -112 -12 -156 71 -60 181 0 164 89 -13 69
-93 104 -152 67z m80 -57 c29 -29 12 -64 -31 -64 -32 0 -46 31 -27 58 18 26
37 28 58 6z"/>
<path d="M9782 5148 c-30 -30 3 -77 40 -57 30 16 16 69 -17 69 -6 0 -16 -5
-23 -12z"/>
<path d="M9270 5125 c-16 -19 -6 -45 19 -45 25 0 34 26 15 45 -19 18 -19 18
-34 0z"/>
<path d="M9612 5107 c-60 -64 18 -160 97 -117 10 5 24 23 31 39 10 26 10 35
-7 63 -16 27 -26 34 -59 36 -31 2 -44 -2 -62 -21z"/>
<path d="M9489 5021 c-20 -16 -22 -23 -14 -47 12 -35 48 -43 76 -18 24 22 24
39 -1 64 -25 25 -32 25 -61 1z"/>
<path d="M9053 4867 c-3 -5 8 -7 23 -5 24 2 30 -1 32 -19 3 -17 10 -23 28 -23
32 0 34 -41 2 -55 -13 -6 -24 -20 -26 -32 -4 -25 -30 -31 -51 -10 -11 10 -13
9 -9 -3 3 -9 17 -15 34 -15 22 0 30 5 32 23 2 13 10 22 21 22 10 0 24 7 31 15
18 21 -2 65 -30 65 -13 0 -20 7 -20 20 0 11 -3 20 -7 21 -5 0 -18 2 -31 3 -13
2 -25 -1 -29 -7z"/>
<path d="M9461 4861 c-55 -29 -68 -91 -28 -135 67 -77 186 -1 147 93 -8 21
-67 64 -83 61 -1 -1 -17 -9 -36 -19z m67 -53 c32 -32 -8 -80 -48 -58 -34 18
-19 70 20 70 9 0 21 -5 28 -12z"/>
<path d="M9028 4833 c-21 -11 -28 -21 -28 -44 0 -16 4 -29 8 -29 5 0 7 14 4
30 -4 25 -1 30 16 30 12 0 24 5 27 11 11 16 3 17 -27 2z"/>
<path d="M9030 4790 c0 -5 5 -10 10 -10 6 0 10 5 10 10 0 6 -4 10 -10 10 -5 0
-10 -4 -10 -10z"/>
<path d="M9125 4790 c3 -5 8 -10 11 -10 2 0 4 5 4 10 0 6 -5 10 -11 10 -5 0
-7 -4 -4 -10z"/>
<path d="M4716 4650 c-70 -21 -108 -89 -107 -189 0 -78 16 -104 87 -143 62
-35 110 -35 175 -3 72 37 91 72 87 165 -2 60 -8 82 -27 109 -42 59 -134 85
-215 61z m154 -35 c37 -19 57 -57 66 -123 9 -69 -7 -104 -65 -142 -58 -37
-105 -39 -152 -7 -52 35 -79 82 -79 137 0 87 18 113 100 143 30 11 102 7 130
-8z"/>
<path d="M4791 4586 c-22 -23 -25 -24 -47 -9 -22 14 -25 13 -54 -15 -31 -31
-32 -51 -2 -81 9 -9 12 -25 7 -47 -8 -46 24 -79 68 -69 18 3 50 8 72 10 26 2
45 11 57 25 22 27 22 42 3 80 -9 17 -12 40 -9 59 6 26 2 32 -27 50 -42 26 -41
26 -68 -3z m19 -76 c23 -23 26 -62 8 -78 -9 -7 -23 -6 -45 3 -37 16 -45 52
-17 79 20 21 30 20 54 -4z"/>
<path d="M5010 4296 c0 -18 78 -78 94 -73 38 13 -7 67 -67 82 -21 6 -27 4 -27
-9z"/>
<path d="M5487 4249 c-134 -32 -207 -125 -207 -266 0 -118 100 -221 232 -239
54 -7 144 25 195 70 68 59 96 167 68 262 -22 76 -91 146 -166 168 -58 18 -67
18 -122 5z m142 -49 c51 -26 108 -91 120 -138 19 -69 -10 -173 -61 -218 -40
-37 -114 -74 -145 -74 -109 0 -233 115 -233 215 0 176 171 291 319 215z"/>
<path d="M5546 4134 c-10 -26 -7 -69 6 -82 18 -18 63 -14 81 6 22 24 21 55 -1
75 -24 22 -78 22 -86 1z"/>
<path d="M5400 4100 c-44 -44 0 -112 63 -96 33 8 44 44 25 83 -17 36 -58 43
-88 13z"/>
<path d="M5592 3984 c-26 -18 -28 -50 -6 -82 21 -30 58 -28 83 4 26 33 26 49
1 74 -24 24 -48 25 -78 4z"/>
<path d="M5440 3950 c-22 -22 -27 -69 -8 -88 7 -7 27 -12 45 -12 52 0 71 57
33 98 -26 27 -44 28 -70 2z"/>
<path d="M5172 4202 c-9 -6 -7 -13 10 -29 38 -34 76 -55 88 -48 20 13 9 35
-30 60 -43 27 -49 29 -68 17z"/>
<path d="M3133 4683 c-22 -4 -23 -8 -23 -123 0 -114 1 -118 23 -124 12 -3 102
-6 200 -6 160 0 178 2 184 18 4 9 7 66 8 126 l0 108 -105 2 c-58 0 -127 -2
-155 -5 -31 -4 1 -6 87 -7 161 -2 151 7 146 -132 l-3 -85 -175 0 -175 0 -3
104 c-2 67 1 108 9 117 6 8 10 13 8 13 -2 -1 -14 -4 -26 -6z"/>
<path d="M3607 4673 c-4 -3 -7 -15 -7 -25 0 -15 3 -17 20 -8 11 6 17 16 14 25
-7 16 -17 19 -27 8z"/>
<path d="M2996 4647 c-31 -31 -32 -37 -6 -65 26 -27 35 -27 60 -2 26 26 25 33
-4 66 l-23 28 -27 -27z"/>
<path d="M3604 4584 c2 -10 8 -20 15 -22 8 -3 12 3 9 14 -4 23 -27 31 -24 8z"/>
<path d="M980 4273 c-71 -7 -72 -10 -68 -150 2 -96 6 -126 18 -133 8 -5 54
-10 103 -10 85 0 88 1 97 26 15 38 13 239 -2 252 -16 13 -90 20 -148 15z m112
-55 c4 -7 8 -55 8 -105 l0 -93 -74 0 c-78 0 -86 4 -80 50 1 14 3 55 3 92 1 54
4 67 19 72 29 8 115 -3 124 -16z"/>
<path d="M669 4101 c-31 -25 -33 -96 -4 -117 76 -56 173 57 99 115 -33 26 -65
27 -95 2z"/>
<path d="M1269 4058 c-10 -18 -8 -24 11 -40 38 -31 83 15 48 50 -19 19 -46 14
-59 -10z"/>
<path d="M1191 3997 c-8 -11 -9 -22 -1 -41 8 -22 16 -27 36 -24 35 4 53 31 38
56 -14 22 -57 27 -73 9z"/>
<path d="M1361 3994 c-37 -26 -22 -64 24 -64 18 0 37 34 29 54 -9 22 -29 26
-53 10z"/>
<path d="M1276 3921 c-21 -23 -18 -49 7 -65 36 -23 75 35 47 70 -17 19 -34 18
-54 -5z"/>
<path d="M738 3882 c-14 -15 -33 -39 -43 -55 l-17 -27 47 -47 47 -47 26 31
c15 17 37 36 49 42 33 17 9 64 -58 112 -26 18 -26 18 -51 -9z m60 -61 c2 -12
-2 -29 -9 -37 -10 -13 -14 -12 -30 2 -23 21 -24 28 -3 49 21 20 38 15 42 -14z"/>
<path d="M1001 3693 c-20 -24 -20 -27 -5 -45 22 -23 46 -23 69 2 15 17 16 22
4 37 -31 40 -41 41 -68 6z"/>
<path d="M2766 4224 c-66 -21 -137 -92 -155 -157 -17 -59 -10 -160 14 -207 40
-79 101 -121 203 -140 213 -38 369 181 268 377 -62 122 -188 170 -330 127z
m137 -115 c12 -6 39 -27 60 -47 33 -32 37 -41 37 -85 0 -44 -4 -54 -38 -87
-50 -51 -99 -60 -157 -32 -32 15 -48 32 -65 66 -26 54 -21 91 18 138 42 50
101 69 145 47z"/>
<path d="M2818 3613 l-198 -3 0 -56 c0 -60 17 -110 46 -136 37 -32 131 -51
228 -46 125 7 167 26 194 86 23 51 38 138 25 145 -17 10 -105 13 -295 10z
m201 -29 l61 -7 0 -39 c0 -95 -59 -133 -210 -133 -107 0 -182 22 -202 58 -7
12 -15 43 -18 69 l-6 47 100 4 c56 1 126 4 157 5 31 1 84 -1 118 -4z"/>
<path d="M3396 4083 c-3 -4 -6 -19 -6 -35 0 -21 5 -28 19 -28 21 0 33 22 25
44 -6 16 -29 28 -38 19z"/>
<path d="M3535 4077 c-22 -17 -14 -47 14 -47 24 0 36 29 18 47 -11 11 -16 11
-32 0z"/>
<path d="M3445 4001 c-7 -12 12 -24 25 -16 11 7 4 25 -10 25 -5 0 -11 -4 -15
-9z"/>
<path d="M3524 3969 c-3 -6 -2 -15 4 -21 15 -15 46 -5 50 15 3 12 -3 17 -22
17 -14 0 -28 -5 -32 -11z"/>
<path d="M4673 4035 c-28 -20 -30 -56 -3 -80 24 -22 65 -14 81 16 9 18 7 26
-9 48 -24 32 -41 36 -69 16z"/>
<path d="M4781 3944 c-26 -19 -27 -36 -3 -57 24 -22 29 -21 47 7 27 41 -4 77
-44 50z"/>
<path d="M6013 3909 c-47 -14 -89 -61 -97 -108 -17 -107 97 -201 196 -162 39
15 93 98 92 143 -2 48 -37 96 -88 119 -45 21 -56 21 -103 8z m69 -36 c20 -18
25 -67 6 -61 -7 3 -13 13 -13 24 0 35 -50 10 -58 -29 -2 -12 -5 -3 -6 21 -1
36 3 44 22 52 30 12 28 12 49 -7z m88 -85 c0 -11 -7 -18 -20 -18 -15 0 -20 7
-20 28 0 16 3 32 7 36 10 9 33 -23 33 -46z m-180 -64 c0 -31 -2 -35 -15 -24
-19 16 -35 73 -28 100 5 19 7 19 24 -10 11 -17 19 -47 19 -66z m50 6 c0 -5 -7
-10 -16 -10 -8 0 -12 5 -9 10 3 6 10 10 16 10 5 0 9 -4 9 -10z m67 -46 c5 -15
-42 -27 -70 -18 -20 6 -20 7 -1 21 21 16 66 14 71 -3z"/>
<path d="M6292 3845 c-31 -53 -129 -209 -184 -293 -49 -76 -48 -94 5 -130 124
-85 493 -315 528 -328 29 -12 45 -28 60 -56 19 -38 23 -40 56 -35 47 8 63 23
63 63 0 37 -20 53 -76 63 l-32 6 114 180 c62 99 113 186 113 192 1 13 -33 36
-324 223 -192 124 -254 160 -278 160 -10 0 -29 -19 -45 -45z m168 -181 c52
-36 140 -92 196 -125 152 -89 148 -79 74 -193 -34 -53 -66 -96 -71 -96 -11 0
-109 60 -109 67 0 2 25 -10 55 -27 l55 -31 50 77 c27 42 50 82 50 89 0 29
-122 105 -168 105 -25 0 -115 65 -123 89 -9 22 -114 85 -129 76 -11 -7 -14 18
-3 28 13 14 30 6 123 -59z m-23 -233 c48 -35 98 -99 69 -88 -25 10 -136 88
-136 97 0 9 11 20 20 20 4 0 25 -13 47 -29z m348 -366 c0 -14 -8 -21 -27 -23
-24 -3 -28 0 -28 23 0 23 4 26 28 23 19 -2 27 -9 27 -23z"/>
<path d="M5966 3579 c-35 -28 -33 -53 8 -78 44 -28 49 -27 79 15 30 43 27 59
-15 73 -41 14 -41 14 -72 -10z m68 -47 c-6 -9 -22 -17 -35 -17 -18 0 -23 5
-21 20 2 11 11 26 20 33 23 18 52 -10 36 -36z"/>
<path d="M6885 3340 c-44 -18 -69 -58 -73 -120 -4 -48 0 -65 18 -95 57 -93
186 -85 238 15 40 80 23 149 -48 189 -38 21 -99 27 -135 11z m75 -30 c21 -13
-33 -32 -67 -24 l-26 7 24 13 c28 16 49 17 69 4z m96 -104 c-3 -14 -10 -26
-16 -26 -13 0 -22 37 -15 61 6 19 9 20 22 6 10 -10 13 -24 9 -41z m-145 31
c-1 -12 -15 -9 -19 4 -3 6 1 10 8 8 6 -3 11 -8 11 -12z m-42 -71 c1 -24 -1
-27 -14 -16 -15 13 -21 71 -8 84 9 9 21 -27 22 -68z m111 -45 c0 -26 -15 -34
-48 -26 l-27 7 24 19 c30 24 51 24 51 0z"/>
<path d="M5042 3718 c2 -13 11 -24 22 -26 10 -2 29 -16 42 -30 18 -22 25 -25
35 -14 11 10 6 20 -26 52 -46 45 -78 53 -73 18z"/>
<path d="M2324 3796 c-6 -17 2 -36 17 -36 12 0 12 37 -1 45 -6 3 -13 -1 -16
-9z"/>
<path d="M2260 3740 c-11 -7 -12 -12 -3 -21 14 -14 46 -4 41 13 -6 16 -20 19
-38 8z"/>
<path d="M2367 3734 c-13 -13 -7 -24 14 -24 11 0 19 5 17 12 -5 14 -22 21 -31
12z"/>
<path d="M2325 3680 c-8 -13 4 -32 16 -25 12 8 12 35 0 35 -6 0 -13 -4 -16
-10z"/>
<path d="M1614 3769 c-20 -39 -11 -76 21 -91 21 -9 28 -8 45 7 26 23 25 49 -1
86 -26 37 -45 37 -65 -2z"/>
<path d="M3387 3623 c-4 -3 -7 -29 -7 -58 0 -28 -5 -56 -12 -63 -7 -7 -35 -12
-64 -12 l-51 0 -7 -37 c-9 -60 -7 -116 7 -143 11 -22 19 -25 62 -25 l50 0 10
-58 c5 -32 17 -62 25 -67 8 -5 45 -10 82 -10 81 0 98 13 98 75 0 50 7 56 75
70 l50 10 0 90 0 90 -60 5 -60 5 -3 55 c-2 30 -8 60 -14 67 -11 14 -169 19
-181 6z m131 -39 c18 -5 22 -13 22 -49 0 -63 7 -75 45 -75 18 0 47 -3 64 -6
32 -7 32 -7 29 -63 l-3 -56 -62 -9 -62 -9 -6 -46 c-4 -25 -7 -53 -8 -61 -2
-11 -18 -16 -58 -18 -50 -3 -57 -1 -62 18 -3 12 -3 37 0 56 8 49 -10 65 -69
63 -27 -2 -53 2 -59 8 -5 5 -9 34 -7 64 l3 54 60 0 60 0 5 60 c4 53 8 60 30
66 33 9 51 10 78 3z"/>
<path d="M3450 3528 c-23 -39 -24 -48 -7 -72 9 -12 23 -17 42 -14 28 3 30 6
30 47 0 34 -5 47 -22 58 -21 14 -23 13 -43 -19z"/>
<path d="M3532 3428 c-30 -30 7 -95 47 -81 20 7 41 32 41 49 0 35 -62 58 -88
32z"/>
<path d="M3314 3406 c-9 -38 2 -46 62 -46 41 0 56 4 61 16 12 31 -11 49 -65
52 -48 3 -52 1 -58 -22z"/>
<path d="M3458 3349 c-9 -5 -20 -23 -23 -41 -6 -26 -3 -35 15 -50 30 -24 46
-23 65 6 28 42 -16 108 -57 85z"/>
<path d="M4496 3579 c-35 -28 -33 -73 6 -102 35 -26 72 -17 88 23 16 39 6 74
-25 88 -34 16 -38 15 -69 -9z"/>
<path d="M4373 3450 c-61 -25 -43 -120 23 -120 27 0 60 28 69 57 4 17 -1 30
-19 48 -27 27 -38 29 -73 15z"/>
<path d="M4630 3440 c-27 -27 -26 -75 2 -94 47 -33 101 -10 101 42 0 63 -61
94 -103 52z"/>
<path d="M3791 3411 c-29 -19 -4 -41 47 -41 53 0 78 15 61 37 -13 15 -87 17
-108 4z"/>
<path d="M4122 3398 c2 -19 10 -24 46 -26 32 -2 44 1 49 13 8 22 -13 35 -60
35 -34 0 -38 -3 -35 -22z"/>
<path d="M3965 3346 c-47 -47 -23 -116 41 -116 41 0 54 11 60 51 4 25 1 40
-13 56 -30 35 -59 38 -88 9z"/>
<path d="M4496 3307 c-13 -10 -17 -24 -14 -57 3 -39 7 -46 31 -54 42 -15 81
10 85 53 6 58 -54 93 -102 58z"/>
<path d="M4209 3247 c-60 -40 -77 -114 -40 -171 26 -39 57 -55 109 -56 75 0
122 50 122 130 0 56 -14 78 -63 101 -55 25 -87 24 -128 -4z"/>
<path d="M3675 3248 c-67 -38 -78 -143 -22 -196 35 -33 77 -42 122 -26 51 17
66 34 75 84 17 91 -27 150 -109 150 -25 0 -55 -6 -66 -12z"/>
<path d="M5584 3465 c-4 -9 -1 -27 6 -39 7 -14 9 -36 5 -54 -13 -59 65 -98 99
-50 9 12 16 30 16 39 0 9 11 24 25 33 28 18 32 38 11 55 -11 9 -21 6 -45 -14
-38 -33 -64 -29 -71 10 -6 33 -36 46 -46 20z"/>
<path d="M5372 3324 c2 -11 11 -20 22 -22 13 -3 17 1 14 14 -2 11 -11 20 -22
22 -13 3 -17 -1 -14 -14z"/>
<path d="M5541 3306 c-16 -19 -11 -46 12 -60 15 -9 21 -7 33 9 8 11 13 29 12
40 -4 25 -40 32 -57 11z"/>
<path d="M5085 3275 c-51 -50 -21 -127 49 -127 67 0 94 48 61 111 -13 26 -39
41 -73 41 -7 0 -24 -11 -37 -25z m75 -51 c0 -19 -28 -30 -42 -16 -8 8 -8 15 1
26 14 17 41 10 41 -10z"/>
<path d="M5536 3194 c-9 -8 -16 -28 -16 -44 0 -38 24 -60 65 -60 43 0 69 34
59 74 -11 45 -76 63 -108 30z m64 -38 c0 -18 -17 -29 -30 -21 -8 5 -7 11 1 21
15 18 29 18 29 0z"/>
<path d="M5264 3116 c-21 -33 -15 -65 18 -89 36 -27 70 -17 91 28 9 20 17 38
17 40 0 11 -66 45 -87 45 -13 0 -29 -11 -39 -24z m83 -31 c7 -21 -1 -28 -25
-21 -32 10 -36 36 -6 36 13 0 27 -7 31 -15z"/>
<path d="M1007 3398 c-24 -13 -21 -49 6 -89 28 -42 53 -48 67 -17 8 17 8 34
-2 62 -14 42 -43 60 -71 44z"/>
<path d="M1020 3217 c0 -23 117 -288 135 -307 27 -26 16 6 -51 157 -66 149
-84 182 -84 150z"/>
<path d="M911 3079 c26 -69 99 -212 105 -206 13 12 -99 257 -117 257 -4 0 2
-23 12 -51z"/>
<path d="M2150 3374 c0 -17 22 -14 28 4 2 7 -3 12 -12 12 -9 0 -16 -7 -16 -16z"/>
<path d="M2362 3357 c-27 -29 -28 -49 -3 -71 15 -14 23 -15 45 -5 29 14 31 22
15 68 -13 37 -28 39 -57 8z"/>
<path d="M2247 3343 c-11 -10 -8 -28 7 -49 14 -19 15 -19 40 5 20 19 23 27 15
38 -12 14 -51 18 -62 6z"/>
<path d="M1890 3320 c0 -13 10 -17 48 -17 43 0 72 10 72 26 0 4 -27 7 -60 7
-49 0 -60 -3 -60 -16z"/>
<path d="M2152 3298 c4 -59 28 -63 28 -4 0 35 -4 46 -16 46 -12 0 -14 -9 -12
-42z"/>
<path d="M2624 3102 c-83 -48 -162 -95 -174 -104 l-22 -17 87 -126 c81 -118
89 -127 114 -122 15 3 89 43 164 88 154 92 155 94 108 168 -16 25 -46 81 -67
124 -21 42 -43 77 -49 77 -5 0 -78 -40 -161 -88z"/>
<path d="M2967 2806 c-7 -18 20 -56 39 -56 20 0 28 24 14 49 -12 24 -45 28
-53 7z"/>
<path d="M2927 2733 c-4 -3 -7 -17 -7 -30 0 -18 5 -23 25 -23 25 0 51 32 40
50 -7 11 -48 13 -58 3z"/>
<path d="M2696 2658 c-23 -83 -24 -89 -13 -92 7 -2 26 -8 44 -13 40 -13 52 -1
60 57 6 39 5 40 -25 40 -17 0 -34 5 -37 10 -9 14 -25 13 -29 -2z"/>
<path d="M2916 2595 c-10 -14 -26 -25 -39 -25 -27 0 -47 -17 -47 -41 0 -26 19
-33 38 -14 9 9 33 24 52 33 26 13 35 23 35 41 0 34 -19 37 -39 6z"/>
<path d="M7702 2963 c-7 -3 -19 -18 -27 -34 -14 -26 -14 -32 -1 -58 15 -28 34
-41 62 -41 22 0 64 46 64 70 0 43 -57 80 -98 63z"/>
<path d="M7185 2786 c-35 -16 -70 -52 -271 -280 -82 -94 -220 -247 -308 -340
-87 -94 -164 -185 -172 -203 -17 -39 -17 -88 -1 -125 11 -25 281 -321 459
-502 l67 -69 54 5 c50 4 65 12 177 94 68 49 159 122 202 163 163 153 434 491
492 615 60 128 50 155 -97 271 -345 275 -455 359 -484 371 -40 17 -79 17 -118
0z m131 -219 c175 -154 354 -320 354 -326 0 -6 -157 -175 -354 -381 -50 -52
-122 -131 -160 -175 -101 -118 -138 -155 -156 -155 -31 0 -420 362 -420 391 0
9 51 72 113 141 61 68 179 201 262 294 193 218 255 284 269 284 6 0 48 -33 92
-73z"/>
<path d="M7582 2747 c-6 -6 -13 -24 -17 -39 -5 -21 -1 -33 19 -52 31 -32 66
-33 94 -3 27 28 28 68 4 90 -22 20 -85 22 -100 4z"/>
<path d="M7882 2678 c-17 -22 -82 -157 -82 -171 0 -12 150 -142 155 -135 20
28 95 184 95 198 0 13 -24 38 -67 70 -72 53 -85 57 -101 38z"/>
<path d="M6450 1555 c-34 -25 -34 -25 -52 -5 -28 30 -53 24 -87 -17 -34 -42
-39 -64 -16 -83 20 -16 19 -35 -2 -72 l-18 -30 44 -39 c50 -44 61 -47 86 -19
24 26 33 25 65 -5 l27 -26 46 44 c26 24 47 48 47 54 0 7 -12 26 -26 43 l-27
31 21 28 c22 31 18 46 -26 94 -32 33 -39 34 -82 2z m-95 -54 c-18 -36 -35 -48
-35 -26 0 25 19 55 36 55 13 0 13 -3 -1 -29z m119 -30 l38 -39 -37 -41 c-21
-23 -42 -41 -48 -41 -17 0 -67 52 -67 69 0 11 66 91 75 91 1 0 18 -18 39 -39z
m-127 -104 c4 -7 19 -21 33 -30 l24 -17 -24 0 c-31 1 -60 22 -60 44 0 19 16
21 27 3z"/>
<path d="M6661 1310 c-66 -43 -91 -65 -91 -80 0 -47 65 -30 169 46 54 38 65
66 32 84 -16 8 -36 -1 -110 -50z"/>
<path d="M6769 1212 c-41 -27 -83 -59 -94 -71 -19 -22 -19 -23 0 -37 10 -8 22
-14 26 -14 11 0 163 101 176 117 14 18 0 53 -21 53 -7 0 -47 -22 -87 -48z"/>
<path d="M2027 2993 c-12 -11 -8 -40 8 -53 30 -25 79 16 54 46 -12 15 -51 19
-62 7z"/>
<path d="M1874 2949 c-18 -20 -18 -21 1 -35 11 -8 30 -12 42 -9 20 5 21 3 12
-31 -8 -27 -7 -41 5 -58 28 -44 118 -40 135 5 21 59 -26 113 -90 103 -35 -6
-39 -4 -45 20 -8 32 -34 34 -60 5z"/>
<path d="M1898 2744 c-14 -31 -1 -57 31 -62 30 -5 51 15 51 48 0 46 -63 57
-82 14z"/>
<path d="M1697 2703 c-11 -10 -8 -41 4 -49 16 -9 43 21 36 40 -7 16 -28 21
-40 9z"/>
<path d="M1994 2650 c-29 -11 -54 -49 -54 -78 0 -32 52 -82 85 -82 16 0 38 12
57 30 25 26 29 36 24 63 -11 55 -64 87 -112 67z m54 -73 c4 -20 -25 -34 -40
-19 -15 15 -1 44 19 40 10 -2 19 -11 21 -21z"/>
<path d="M1415 2531 c-39 -16 -60 -51 -60 -98 0 -37 5 -49 28 -69 84 -72 209
20 162 119 -23 50 -77 69 -130 48z m65 -77 c11 -12 10 -18 -3 -32 -16 -15 -18
-15 -33 0 -19 18 -12 48 9 48 8 0 20 -7 27 -16z"/>
<path d="M1686 2408 c-25 -35 -20 -83 10 -107 59 -46 134 -10 134 65 0 42 -30
64 -87 64 -32 0 -46 -5 -57 -22z m87 -33 c3 -7 -2 -24 -12 -37 -16 -19 -21
-20 -35 -9 -19 16 -20 33 -4 49 16 16 45 15 51 -3z"/>
<path d="M5860 2903 c-40 -27 -49 -45 -50 -91 0 -63 32 -92 102 -92 65 0 95
19 104 65 8 46 -1 81 -31 111 -29 29 -88 32 -125 7z m118 -35 c18 -18 15 -27
-8 -21 -11 3 -20 12 -20 19 0 17 12 18 28 2z m-38 -47 c0 -24 -25 -34 -40 -16
-15 18 -5 35 21 35 12 0 19 -7 19 -19z"/>
<path d="M6442 2887 c-18 -18 -32 -36 -32 -41 0 -12 64 -86 75 -86 5 0 29 19
52 42 l43 42 -37 38 c-20 21 -44 38 -53 38 -9 0 -30 -15 -48 -33z m76 -38 c4
-19 -27 -34 -41 -20 -14 14 0 43 20 39 10 -2 19 -10 21 -19z"/>
<path d="M6159 2808 c-10 -18 -8 -24 11 -40 38 -31 83 15 48 50 -19 19 -46 14
-59 -10z"/>
<path d="M6331 2816 c-17 -21 -7 -44 24 -56 14 -5 30 -21 35 -35 13 -34 39
-43 56 -20 22 30 17 45 -20 60 -23 10 -36 23 -38 37 -4 28 -39 36 -57 14z"/>
<path d="M6139 2712 c-27 -5 -53 -75 -44 -119 10 -57 39 -83 92 -83 58 0 76
11 97 59 33 72 -1 130 -80 140 -27 4 -56 5 -65 3z m114 -50 c25 -22 22 -68 -7
-97 -20 -20 -29 -22 -58 -16 -66 15 -81 29 -75 68 9 56 33 75 82 67 22 -3 48
-13 58 -22z"/>
<path d="M6151 2634 c-6 -15 -9 -29 -7 -32 10 -9 36 20 36 39 0 27 -15 23 -29
-7z"/>
<path d="M6218 2632 c-6 -22 1 -44 13 -36 12 7 12 41 0 48 -5 3 -11 -2 -13
-12z"/>
<path d="M3846 2481 c-99 -26 -106 -37 -106 -171 0 -59 -3 -134 -6 -166 -4
-42 -2 -64 8 -77 13 -17 17 -17 98 5 116 30 259 30 350 -1 88 -31 88 -32 86
179 -2 202 -1 199 -120 230 -98 25 -216 25 -310 1z"/>
<path d="M3105 2401 c-173 -42 -250 -254 -146 -398 59 -82 205 -121 302 -80
76 32 149 144 149 231 0 163 -150 284 -305 247z m177 -78 c104 -75 116 -212
26 -309 -78 -85 -190 -92 -278 -17 -54 46 -80 100 -80 162 0 61 13 97 48 135
45 48 98 67 174 64 56 -3 74 -9 110 -35z"/>
<path d="M3106 2300 c-66 -20 -100 -78 -94 -162 3 -47 10 -64 33 -88 50 -52
140 -65 195 -27 69 46 91 143 47 208 -46 68 -106 91 -181 69z"/>
<path d="M4733 2244 c-8 -4 -13 -27 -13 -65 l0 -60 58 3 57 3 3 49 c2 27 0 52
-5 57 -10 10 -84 20 -100 13z"/>
<path d="M4552 2064 c-15 -10 -22 -25 -22 -48 0 -39 15 -56 50 -56 53 0 80 69
42 103 -23 21 -41 21 -70 1z"/>
<path d="M4930 2060 c-27 -27 -25 -62 3 -88 29 -27 51 -28 77 -2 27 27 26 75
-2 94 -30 21 -54 20 -78 -4z"/>
<path d="M4744 1902 c-39 -26 -36 -79 6 -102 32 -17 90 16 90 52 0 40 -62 73
-96 50z"/>
<path d="M3286 1868 c-9 -5 -16 -21 -16 -36 0 -61 -9 -72 -56 -72 -50 0 -67
-20 -62 -73 3 -31 5 -32 58 -37 l55 -5 5 -55 c5 -55 5 -55 41 -58 47 -4 69 18
69 68 0 42 11 50 65 50 35 0 45 13 45 59 0 39 -17 51 -71 51 l-48 0 -3 52 c-3
50 -5 53 -34 59 -18 3 -39 2 -48 -3z"/>
<path d="M5475 2766 c-49 -22 -68 -51 -67 -98 3 -62 8 -71 55 -97 72 -39 145
-10 165 65 11 42 5 67 -26 103 -32 37 -82 48 -127 27z m114 -41 c45 -52 38
-111 -18 -140 -66 -33 -130 -1 -146 73 -6 29 -3 37 30 67 50 48 92 48 134 0z"/>
<path d="M5500 2725 c-15 -17 -5 -35 20 -35 22 0 33 23 17 39 -15 15 -22 14
-37 -4z"/>
<path d="M5445 2680 c-3 -5 -1 -19 5 -30 9 -16 15 -18 30 -10 23 12 25 21 8
38 -15 15 -35 16 -43 2z"/>
<path d="M5547 2670 c-7 -28 19 -48 39 -28 18 18 8 48 -16 48 -10 0 -20 -9
-23 -20z"/>
<path d="M5500 2615 c0 -18 5 -25 19 -25 23 0 34 23 18 39 -19 19 -37 12 -37
-14z"/>
<path d="M5082 2735 c-53 -38 -48 -121 10 -151 58 -30 118 8 118 74 0 67 -77
113 -128 77z m63 -76 c-4 -5 -13 -9 -22 -9 -13 0 -13 3 -3 15 13 15 35 11 25
-6z m-45 -34 c0 -8 -4 -15 -9 -15 -13 0 -22 16 -14 24 11 11 23 6 23 -9z"/>
<path d="M5259 2659 c-12 -8 -11 -11 1 -19 18 -12 42 -9 47 6 5 15 -31 24 -48
13z"/>
<path d="M5343 2648 c2 -7 12 -13 22 -13 10 0 20 6 23 13 2 7 -6 12 -23 12
-17 0 -25 -5 -22 -12z"/>
<path d="M2229 2363 c-23 -6 -26 -22 -21 -151 5 -135 2 -132 132 -123 l85 6 0
135 0 135 -90 2 c-49 0 -97 -1 -106 -4z m169 -135 l-3 -103 -40 -7 c-22 -3
-56 -4 -77 -1 l-36 5 -4 92 c-2 50 0 97 5 104 6 8 36 12 84 12 l74 0 -3 -102z"/>
<path d="M1955 2195 c-39 -39 -32 -86 17 -111 55 -28 108 2 108 62 0 69 -76
99 -125 49z"/>
<path d="M2572 2168 c-7 -7 -12 -17 -12 -23 0 -12 31 -45 42 -45 10 0 30 59
23 69 -8 15 -38 14 -53 -1z"/>
<path d="M2496 2094 c-19 -18 -19 -20 -6 -45 6 -10 17 -19 25 -19 15 0 45 26
45 40 0 5 -7 16 -16 24 -8 9 -19 16 -24 16 -5 0 -16 -7 -24 -16z"/>
<path d="M2650 2095 c-15 -18 -10 -45 13 -59 15 -9 21 -7 33 8 18 25 18 31 -2
50 -19 20 -28 20 -44 1z"/>
<path d="M2570 2015 c-10 -12 -10 -21 -2 -40 14 -31 36 -32 56 -3 29 41 -22
81 -54 43z"/>
<path d="M2009 1971 c-22 -21 -39 -45 -39 -54 0 -19 75 -87 97 -87 16 0 93 73
93 89 0 12 -88 91 -101 91 -6 0 -29 -17 -50 -39z m79 -49 c4 -28 -24 -40 -45
-19 -14 13 -14 19 -3 32 18 22 44 15 48 -13z"/>
<path d="M2298 1809 c-38 -21 -5 -79 36 -63 25 10 31 46 10 61 -21 15 -24 16
-46 2z"/>
<path d="M5603 2300 c-23 -5 -52 -14 -63 -20 -43 -23 -102 -85 -128 -134 -22
-43 -27 -64 -27 -131 1 -98 29 -169 87 -219 78 -68 228 -88 327 -45 174 75
220 330 83 467 -79 80 -164 104 -279 82z m133 -146 c44 -21 94 -92 94 -134 0
-17 -7 -44 -14 -59 -19 -36 -80 -89 -112 -97 -88 -22 -184 57 -184 153 0 57
29 104 80 131 52 26 90 28 136 6z"/>
<path d="M5445 1601 c-39 -6 -40 -7 -43 -51 -11 -149 70 -213 271 -212 65 0
109 7 160 23 66 21 71 25 90 68 12 28 21 69 21 106 l1 60 -45 6 c-54 9 -398 8
-455 0z m470 -51 c10 -30 -14 -101 -44 -131 -40 -39 -98 -52 -226 -47 -88 2
-117 7 -144 23 -43 25 -71 78 -71 132 l0 43 239 0 c229 0 240 -1 246 -20z"/>
<path d="M2293 1498 c-6 -7 -8 -30 -6 -51 6 -45 38 -59 79 -32 21 13 25 23 22
53 -3 36 -5 37 -44 40 -25 2 -45 -2 -51 -10z"/>
<path d="M2428 1419 c-24 -13 -23 -56 1 -69 39 -21 73 19 51 60 -12 22 -26 25
-52 9z"/>
<path d="M2593 1368 c2 -7 10 -13 17 -13 7 0 15 6 18 13 2 7 -5 12 -18 12 -13
0 -20 -5 -17 -12z"/>
<path d="M2550 1315 c-6 -8 -9 -19 -6 -24 9 -14 36 -2 36 14 0 21 -16 26 -30
10z"/>
<path d="M2522 1259 c2 -6 8 -10 13 -10 5 0 11 4 13 10 2 6 -4 11 -13 11 -9 0
-15 -5 -13 -11z"/>
<path d="M2730 1195 c-6 -8 -9 -19 -5 -25 10 -16 42 -12 49 6 12 32 -21 47
-44 19z"/>
<path d="M2790 1140 c0 -14 7 -20 23 -20 30 0 40 10 26 27 -18 20 -49 16 -49
-7z"/>
<path d="M5750 1164 c-41 -8 -172 -33 -290 -55 -118 -22 -223 -42 -232 -45
-25 -7 -23 -36 11 -202 16 -78 32 -165 36 -195 11 -87 4 -84 167 -59 205 33
512 92 528 102 12 7 10 42 -13 217 -37 279 -28 253 -85 252 -26 0 -81 -7 -122
-15z"/>
<path d="M6030 1065 c-7 -8 -10 -24 -7 -36 4 -13 -1 -26 -14 -37 -28 -25 -24
-49 11 -57 16 -3 32 -15 35 -25 8 -24 45 -15 45 12 0 12 11 23 31 30 23 8 29
16 27 32 -2 16 -11 22 -36 24 -27 3 -36 10 -48 38 -16 37 -25 42 -44 19z"/>
<path d="M5107 863 c-20 -23 -22 -64 -5 -81 7 -7 28 -12 48 -12 43 0 60 14 60
51 0 31 -16 47 -56 55 -22 4 -34 0 -47 -13z"/>
<path d="M6058 863 c-21 -3 -28 -10 -28 -27 0 -22 3 -23 53 -18 58 5 73 13 64
36 -6 16 -29 18 -89 9z"/>
<path d="M5140 701 c-26 -4 -35 -11 -35 -26 0 -18 6 -20 50 -17 55 4 71 13 62
36 -7 17 -18 18 -77 7z"/>
<path d="M3714 981 c-33 -20 -64 -82 -64 -129 0 -34 29 -78 66 -103 58 -38
150 -14 178 46 25 51 21 108 -10 145 -51 60 -114 75 -170 41z m151 -81 c3 -5
1 -10 -4 -10 -6 0 -11 5 -11 10 0 6 2 10 4 10 3 0 8 -4 11 -10z m-58 -47 c-12
-12 -19 -13 -38 -3 -21 12 -22 13 -4 26 13 10 23 10 38 3 17 -10 18 -13 4 -26z
m-69 -30 c5 -17 -26 -29 -40 -15 -6 6 -7 15 -3 22 9 14 37 9 43 -7z"/>
<path d="M4326 925 c-85 -22 -125 -83 -126 -192 0 -38 5 -46 56 -91 61 -55
105 -68 167 -51 115 31 163 162 96 263 -48 71 -107 94 -193 71z m115 -31 c35
-18 89 -97 89 -131 0 -12 -7 -41 -16 -63 -22 -54 -71 -84 -140 -85 -45 0 -57
4 -84 30 -42 40 -60 76 -60 120 0 54 25 92 78 119 55 29 91 32 133 10z"/>
<path d="M4363 863 c-20 -7 -15 -51 6 -63 38 -20 71 13 51 51 -10 18 -31 23
-57 12z"/>
<path d="M4265 800 c-4 -6 -4 -24 0 -40 8 -35 31 -39 66 -11 23 19 24 19 5 40
-20 22 -60 28 -71 11z"/>
<path d="M4422 764 c-9 -18 -9 -31 -2 -45 20 -36 70 -17 70 26 0 47 -50 61
-68 19z"/>
<path d="M4335 707 c-26 -41 4 -79 46 -56 26 13 21 47 -8 66 -20 13 -23 12
-38 -10z"/>
<path d="M3964 819 c-8 -14 3 -24 43 -37 25 -8 34 -7 43 3 8 10 6 17 -12 29
-26 18 -64 21 -74 5z"/>
<path d="M4102 802 c-30 -19 16 -60 52 -46 20 8 22 44 2 44 -8 0 -20 2 -28 5
-7 3 -19 1 -26 -3z"/>
</g>
</svg>
